<svg width="428" height="926" viewBox="0 0 428 926" fill="none" xmlns="http://www.w3.org/2000/svg">
<path d="M431.41 904.88C429.542 905.899 427.393 906.286 425.286 905.984C423.18 905.682 421.227 904.707 419.72 903.204C418.99 902.516 418.374 901.717 417.895 900.836C417.268 899.686 416.876 898.423 416.743 897.119C416.609 895.816 416.737 894.499 417.118 893.246C417.499 891.992 418.126 890.828 418.963 889.819C419.799 888.811 420.828 887.979 421.989 887.372C423.858 886.354 426.006 885.966 428.113 886.268C430.22 886.571 432.172 887.546 433.679 889.049C434.417 889.755 435.019 890.591 435.455 891.515C436.444 893.378 436.81 895.508 436.5 897.594C436.189 899.68 435.218 901.611 433.729 903.105C433.037 903.796 432.258 904.393 431.41 904.88Z" fill="url(#paint0_linear_484_47595)"/>
<path d="M402.989 919.057C401.187 919.859 399.204 920.075 397.288 919.678C395.372 919.281 393.608 918.289 392.216 916.826C391.327 915.868 390.575 914.777 389.982 913.586C388.91 910.981 388.829 908.032 389.756 905.365C390.683 902.697 392.545 900.521 394.946 899.298C396.796 898.458 398.835 898.216 400.812 898.604C402.788 898.991 404.615 899.989 406.067 901.475C406.951 902.411 407.644 903.532 408.102 904.769C408.958 906.734 409.231 908.932 408.885 911.069C408.539 913.205 407.59 915.177 406.166 916.72C405.26 917.713 404.181 918.507 402.989 919.057Z" fill="url(#paint1_linear_484_47595)"/>
<path d="M41.5086 925.315C40.2754 924.81 39.1508 924.074 38.1957 923.146C36.8038 921.752 35.8479 919.985 35.4441 918.06C35.0404 916.134 35.2061 914.133 35.9211 912.3C36.4049 911.088 37.1252 909.983 38.0403 909.05C38.9555 908.118 40.0472 907.375 41.2523 906.866C42.4573 906.357 43.7518 906.092 45.0605 906.085C46.3692 906.079 47.6662 906.331 48.8763 906.828C50.1131 907.327 51.2389 908.064 52.1893 908.997C53.5865 910.367 54.5439 912.12 54.9401 914.034C55.3362 915.947 55.1533 917.935 54.4144 919.744C53.927 920.996 53.167 922.124 52.1893 923.047C50.829 924.429 49.0908 925.381 47.1914 925.784C45.2921 926.188 43.3156 926.024 41.5086 925.315Z" fill="url(#paint2_linear_484_47595)"/>
<path d="M13.3268 912.746C12.3434 912.29 11.4422 911.676 10.6595 910.929C9.17839 909.462 8.18546 907.579 7.81452 905.533C7.44358 903.488 7.71249 901.378 8.585 899.489C9.1444 898.3 9.93815 897.234 10.9192 896.355C11.9003 895.475 13.0487 894.801 14.2967 894.37C15.5447 893.94 16.8669 893.763 18.185 893.849C19.503 893.936 20.7903 894.284 21.9705 894.874C22.9229 895.377 23.8033 896.005 24.5884 896.74C26.0765 898.183 27.0685 900.056 27.4232 902.093C27.778 904.129 27.4773 906.225 26.564 908.082C26.1138 909.105 25.4776 910.037 24.6872 910.831C23.2332 912.292 21.3549 913.262 19.3169 913.606C17.2789 913.949 15.1838 913.649 13.3268 912.746Z" fill="url(#paint3_linear_484_47595)"/>
<path d="M-14.9219 898.594C-15.6927 898.119 -16.4058 897.558 -17.0472 896.92C-18.5715 895.394 -19.5514 893.412 -19.8371 891.278C-20.1228 889.144 -19.6984 886.976 -18.6289 885.105C-17.9915 883.962 -17.1319 882.957 -16.1002 882.148C-15.0686 881.34 -13.8856 880.744 -12.6203 880.396C-11.3549 880.048 -10.0326 879.954 -8.73053 880.12C-7.42842 880.286 -6.17263 880.709 -5.03636 881.364C-4.20503 881.792 -3.45291 882.358 -2.81213 883.037C-1.32005 884.594 -0.366545 886.585 -0.090889 888.719C0.184769 890.853 -0.231798 893.02 -1.27982 894.902C-1.69674 895.683 -2.23005 896.396 -2.86153 897.018C-4.40786 898.582 -6.43456 899.587 -8.61966 899.872C-10.8048 900.158 -13.0229 899.708 -14.9219 898.594Z" fill="url(#paint4_linear_484_47595)"/>
<path d="M430.885 108.126C430.112 107.651 429.396 107.088 428.752 106.45C427.234 104.925 426.258 102.949 425.972 100.822C425.685 98.6953 426.104 96.5337 427.165 94.6652C427.797 93.5186 428.651 92.5083 429.678 91.6929C430.706 90.8775 431.886 90.2733 433.151 89.9154C434.415 89.5576 435.738 89.4531 437.044 89.6083C438.349 89.7635 439.611 90.175 440.755 90.8192C441.561 91.2479 442.297 91.7966 442.937 92.4464C444.453 94.0034 445.426 96.0037 445.712 98.1522C445.998 100.301 445.581 102.484 444.524 104.379C444.118 105.169 443.581 105.886 442.937 106.499C441.395 108.062 439.373 109.07 437.191 109.365C435.009 109.659 432.791 109.224 430.885 108.126Z" fill="url(#paint5_linear_484_47595)"/>
<path d="M404.42 94.6779C403.338 94.2379 402.35 93.6182 401.505 92.849C399.908 91.396 398.844 89.5101 398.463 87.4599C398.082 85.4098 398.405 83.2999 399.385 81.4307C399.981 80.2479 400.823 79.187 401.862 78.3095C402.9 77.432 404.115 76.7553 405.436 76.3186C406.757 75.8819 408.158 75.6938 409.557 75.7653C410.957 75.8367 412.327 76.1663 413.589 76.7348C414.644 77.1938 415.611 77.8117 416.451 78.5638C418.088 80.0125 419.187 81.9107 419.587 83.9822C419.988 86.0537 419.669 88.1903 418.677 90.081C418.11 91.0605 417.396 91.9593 416.557 92.7502C415.001 94.2099 412.995 95.1803 410.819 95.5259C408.644 95.8715 406.406 95.575 404.42 94.6779Z" fill="url(#paint6_linear_484_47595)"/>
<path d="M377.454 82.6843C376.136 82.1386 374.927 81.3901 373.881 80.4707C372.382 79.0981 371.36 77.3464 370.942 75.4373C370.524 73.5283 370.73 71.5478 371.534 69.7468C372.046 68.5402 372.811 67.4387 373.786 66.5057C374.761 65.5727 375.927 64.8265 377.215 64.31C378.504 63.7935 379.891 63.5168 381.295 63.4959C382.7 63.475 384.096 63.7103 385.402 64.1882C386.741 64.7043 387.97 65.4372 389.029 66.3526C390.527 67.7251 391.55 69.4769 391.968 71.3859C392.386 73.295 392.18 75.2754 391.376 77.0764C390.919 78.3614 390.132 79.5258 389.082 80.4707C387.6 81.8606 385.703 82.8131 383.633 83.2072C381.563 83.6014 379.412 83.4193 377.454 82.6843Z" fill="url(#paint7_linear_484_47595)"/>
<path d="M350.039 72.2187C348.547 71.7365 347.191 70.9067 346.083 69.7977C344.775 68.5022 343.855 66.8677 343.427 65.0782C342.999 63.2887 343.079 61.4154 343.659 59.6691C344.052 58.4279 344.687 57.2766 345.528 56.2814C346.368 55.2862 347.396 54.4665 348.555 53.8696C349.713 53.2728 350.978 52.9105 352.276 52.8035C353.575 52.6964 354.882 52.8468 356.123 53.246C357.65 53.7084 359.031 54.5598 360.129 55.7164C361.409 56.9788 362.32 58.5659 362.765 60.307C363.209 62.0482 363.17 63.8775 362.651 65.598C362.134 67.1133 361.29 68.4965 360.178 69.6495C358.898 70.9816 357.269 71.9283 355.477 72.3824C353.685 72.8366 351.801 72.7798 350.039 72.2187Z" fill="url(#paint8_linear_484_47595)"/>
<path d="M321.613 64.7157C319.828 64.3119 318.203 63.3861 316.944 62.0556C315.739 60.8542 314.866 59.3604 314.41 57.72C313.953 56.0796 313.929 54.3486 314.339 52.6959C314.642 51.4104 315.2 50.1992 315.98 49.1342C316.759 48.0693 317.745 47.1723 318.877 46.4967C320.01 45.8212 321.266 45.3808 322.572 45.2018C323.878 45.0227 325.206 45.1087 326.478 45.4545C328.21 45.9543 329.795 46.867 331.098 48.1147C332.302 49.3259 333.171 50.8303 333.619 52.48C334.067 54.1297 334.079 55.8678 333.654 57.5235C333.187 59.2471 332.29 60.8236 331.049 62.1048C329.841 63.3284 328.334 64.2133 326.678 64.6714C325.022 65.1295 323.276 65.1448 321.613 64.7157Z" fill="url(#paint9_linear_484_47595)"/>
<path d="M292.351 58.7641C290.122 58.3634 288.071 57.2871 286.48 55.6823C285.3 54.4428 284.422 52.9503 283.913 51.3198C283.404 49.6893 283.278 47.9643 283.544 46.2776C284.089 43.4701 285.72 40.9883 288.087 39.368C290.454 37.7476 293.366 37.1186 296.195 37.6168C298.201 38.0769 300.045 39.0683 301.532 40.4861C302.819 41.7023 303.78 43.2186 304.33 44.8977C304.88 46.5769 305.001 48.366 304.682 50.1033C304.273 52.2471 303.21 54.2135 301.639 55.7354C300.445 56.9399 298.979 57.8431 297.364 58.3699C295.748 58.8967 294.03 59.0318 292.351 58.7641Z" fill="url(#paint10_linear_484_47595)"/>
<path d="M263.104 54.2269C260.915 53.9972 258.866 53.043 257.282 51.5161C256.196 50.4596 255.369 49.1676 254.864 47.7402C254.36 46.3128 254.191 44.7885 254.371 43.2854C254.499 41.9742 254.889 40.702 255.518 39.5439C256.147 38.3858 257.001 37.3654 258.032 36.5429C259.062 35.7205 260.247 35.1127 261.517 34.7555C262.786 34.3983 264.115 34.2989 265.423 34.4632C267.601 34.7519 269.626 35.7375 271.196 37.2725C272.283 38.3191 273.116 39.601 273.629 41.0194C274.142 42.4378 274.323 43.9549 274.157 45.454C273.902 47.6826 272.913 49.7633 271.344 51.3683C270.282 52.4437 268.986 53.2608 267.558 53.7564C266.129 54.2521 264.605 54.413 263.104 54.2269Z" fill="url(#paint11_linear_484_47595)"/>
<path d="M233.125 51.2212C230.65 51.1222 228.302 50.0984 226.545 48.3522C225.567 47.3699 224.806 46.1929 224.312 44.8976C223.817 43.6022 223.601 42.2175 223.676 40.8332C223.727 39.5249 224.037 38.2397 224.588 37.052C225.139 35.8644 225.92 34.798 226.887 33.9145C227.853 33.0311 228.985 32.3482 230.217 31.9055C231.449 31.4628 232.757 31.2691 234.065 31.3355C236.54 31.4346 238.887 32.4584 240.644 34.2046C241.638 35.1882 242.412 36.3713 242.915 37.6759C243.418 38.9805 243.639 40.3769 243.563 41.773C243.427 44.2394 242.409 46.5746 240.694 48.3522C239.706 49.3369 238.52 50.1016 237.216 50.596C235.912 51.0905 234.517 51.3036 233.125 51.2212Z" fill="url(#paint12_linear_484_47595)"/>
<path d="M203.823 51.2312C202.386 51.2843 200.953 51.0483 199.619 50.5387C198.284 50.029 197.077 49.2571 196.078 48.2734C194.156 46.4307 193.061 43.9507 193.021 41.3552C193.021 38.6961 194.132 36.1459 196.108 34.2656C198.084 32.3853 200.765 31.329 203.56 31.329C205.012 31.2803 206.459 31.518 207.81 32.027C209.161 32.536 210.387 33.3053 211.411 34.2867C213.332 36.1294 214.428 38.6094 214.467 41.2049C214.496 42.5615 214.236 43.9097 213.702 45.1678C213.167 46.4259 212.37 47.5677 211.358 48.5241C209.322 50.3401 206.613 51.3136 203.823 51.2312Z" fill="url(#paint13_linear_484_47595)"/>
<path d="M174.81 52.72C173.349 52.8683 171.874 52.6876 170.492 52.1912C169.11 51.6949 167.856 50.8953 166.821 49.8509C165.218 48.1798 164.212 46.0226 163.961 43.717C163.833 42.4052 163.967 41.0809 164.356 39.8218C164.744 38.5627 165.38 37.3943 166.225 36.3851C167.071 35.3759 168.108 34.5463 169.278 33.945C170.447 33.3438 171.724 32.983 173.034 32.8839C174.5 32.7722 175.973 32.9797 177.352 33.4919C178.731 34.0042 179.983 34.8092 181.023 35.8519C182.662 37.4871 183.645 39.6703 183.784 41.9857C183.923 43.431 183.744 44.8894 183.258 46.2572C182.772 47.6251 181.992 48.8688 180.973 49.9003C179.336 51.5707 177.141 52.5749 174.81 52.72Z" fill="url(#paint14_linear_484_47595)"/>
<path d="M144.742 57.2256C143.205 57.4986 141.631 57.3756 140.146 56.8666C138.662 56.3576 137.31 55.477 136.202 54.2968C134.657 52.6728 133.665 50.5337 133.388 48.2261C133.192 46.8412 133.25 45.4281 133.561 44.0679C133.872 42.7076 134.429 41.4269 135.199 40.2991C135.97 39.1712 136.939 38.2184 138.051 37.4952C139.163 36.772 140.397 36.2927 141.682 36.0846C143.219 35.7845 144.8 35.8945 146.289 36.405C147.778 36.9155 149.128 37.811 150.222 39.0135C151.727 40.6545 152.727 42.7555 153.085 45.0309C153.312 46.693 153.17 48.3893 152.673 49.9811C152.175 51.573 151.335 53.0153 150.222 54.1903C148.742 55.8065 146.822 56.87 144.742 57.2256Z" fill="url(#paint15_linear_484_47595)"/>
<path d="M115.669 61.727C113.926 62.0877 112.114 62.0326 110.4 61.5668C108.686 61.101 107.126 60.2396 105.865 59.0625C104.38 57.7225 103.349 56.0073 102.897 54.1281C102.586 52.8509 102.551 51.5288 102.794 50.2389C103.037 48.9489 103.554 47.7169 104.313 46.6146C105.073 45.5124 106.06 44.562 107.219 43.8187C108.377 43.0755 109.682 42.5543 111.059 42.2855C112.802 41.9262 114.613 41.9724 116.332 42.4199C118.051 42.8675 119.625 43.7026 120.915 44.8514C122.381 46.1977 123.394 47.9124 123.83 49.7858C124.217 51.4087 124.158 53.0963 123.658 54.6922C123.158 56.2881 122.233 57.7405 120.968 58.9145C119.548 60.3296 117.7 61.3103 115.669 61.727Z" fill="url(#paint16_linear_484_47595)"/>
<path d="M87.2566 69.202C85.409 69.7203 83.4446 69.7594 81.5749 69.3153C79.7051 68.8712 78.0008 67.9606 76.6452 66.6816C75.4059 65.5235 74.4944 64.0971 73.9924 62.5303C73.579 61.2715 73.4398 59.9484 73.5828 58.6388C73.7259 57.3292 74.1484 56.0593 74.8255 54.9039C75.5025 53.7484 76.4206 52.7305 77.5257 51.91C78.6309 51.0896 79.9009 50.483 81.2611 50.1259C83.1088 49.6076 85.0731 49.5684 86.9429 50.0125C88.8126 50.4566 90.5169 51.3672 91.8725 52.6463C93.1118 53.8043 94.0233 55.2307 94.5253 56.7975C95.0817 58.5185 95.1238 60.3482 94.647 62.0898C94.1702 63.8314 93.1927 65.4189 91.8195 66.6816C90.581 67.902 89.0003 68.7751 87.2566 69.202Z" fill="url(#paint17_linear_484_47595)"/>
<path d="M59.3943 79.622C57.6108 80.3709 55.6638 80.5435 53.791 80.1186C51.9181 79.6936 50.2004 78.6897 48.8475 77.2291C47.8404 76.1069 47.0675 74.7652 46.5805 73.2941C46.1193 71.9686 45.908 70.5571 45.9591 69.1423C46.0103 67.7275 46.3227 66.3379 46.8782 65.0551C47.4336 63.7723 48.2209 62.6221 49.1938 61.6719C50.1667 60.7217 51.3056 59.9907 52.5438 59.5218C54.326 58.8327 56.2545 58.7121 58.0986 59.1741C59.9427 59.6362 61.6244 60.6615 62.9428 62.1274C63.9394 63.1971 64.7124 64.4843 65.2099 65.9028C65.8979 67.8321 66.0499 69.9359 65.6473 71.9569C65.2447 73.9779 64.3048 75.8284 62.9428 77.2823C61.9651 78.3771 60.7433 79.1827 59.3943 79.622Z" fill="url(#paint18_linear_484_47595)"/>
<path d="M30.9724 90.1637C29.1482 91.0021 27.1111 91.2673 25.132 90.924C23.1529 90.5807 21.3256 89.6452 19.8932 88.2419C18.9961 87.3672 18.2744 86.3303 17.7664 85.1867C17.2132 84.0009 16.9023 82.7173 16.852 81.4107C16.8017 80.104 17.0129 78.8004 17.4732 77.5759C17.9335 76.3513 18.6338 75.2303 19.5333 74.2781C20.4328 73.3259 21.5135 72.5616 22.7125 72.0296C24.5462 71.2036 26.5893 70.9543 28.5689 71.3153C30.5485 71.6763 32.3705 72.6303 33.7917 74.0499C34.6606 74.9084 35.3498 75.9301 35.8195 77.0559C36.6832 78.8852 36.9615 80.9349 36.6164 82.927C36.2713 84.9192 35.3197 86.7575 33.8905 88.1926C33.0638 89.0422 32.0705 89.7131 30.9724 90.1637Z" fill="url(#paint19_linear_484_47595)"/>
<path d="M4.99213 103.689C2.98531 104.689 0.685592 105.061 -1.56646 104.751C-3.81852 104.44 -5.90314 103.463 -7.51154 101.964C-8.31981 101.279 -8.98446 100.46 -9.47183 99.5491C-10.1351 98.399 -10.5462 97.1378 -10.6812 95.8387C-10.8163 94.5396 -10.6727 93.2285 -10.2587 91.9815C-9.84466 90.7344 -9.1685 89.5763 -8.26944 88.5743C-7.37039 87.5723 -6.26637 86.7463 -5.02139 86.1443C-3.01418 85.1262 -0.706786 84.7393 1.55628 85.0413C3.81935 85.3433 5.91676 86.318 7.53531 87.82C8.30029 88.5478 8.94318 89.3784 9.44257 90.2841C10.5244 92.1457 10.9334 94.2818 10.609 96.3764C10.2846 98.471 9.24397 100.413 7.64121 101.915C6.862 102.63 5.96837 103.228 4.99213 103.689Z" fill="url(#paint20_linear_484_47595)"/>
<path d="M429.412 42.477C428.261 41.9021 427.194 41.1722 426.241 40.3073C424.543 38.6117 423.409 36.4315 422.994 34.0651C422.58 31.6986 422.905 29.2616 423.925 27.0876C425.261 24.344 427.625 22.2416 430.502 21.2395C433.378 20.2374 436.534 20.417 439.279 21.7392C440.429 22.2183 441.473 22.9215 442.35 23.8079C444.065 25.5034 445.21 27.6931 445.625 30.0717C446.04 32.4504 445.705 34.8996 444.666 37.0781C444.091 38.213 443.344 39.2514 442.451 40.156C440.787 41.8518 438.637 42.9864 436.301 43.4023C433.965 43.8183 431.557 43.4949 429.412 42.477Z" fill="url(#paint21_linear_484_47595)"/>
<path d="M399.411 28.9744C398.007 28.3825 396.727 27.5301 395.64 26.4623C394.009 24.8843 392.887 22.8539 392.422 20.633C391.956 18.4121 392.166 16.1026 393.026 14.0025C393.58 12.6099 394.403 11.3401 395.449 10.2656C396.494 9.19115 397.741 8.33312 399.119 7.74054C400.496 7.14797 401.977 6.83246 403.476 6.81209C404.976 6.79172 406.464 7.06686 407.857 7.6218C409.268 8.20124 410.55 9.05513 411.628 10.1339C413.274 11.6806 414.414 13.6884 414.899 15.8939C415.383 18.0994 415.189 20.3997 414.343 22.4933C413.729 23.9537 412.841 25.2838 411.729 26.4121C410.156 28.0041 408.149 29.0966 405.957 29.5525C403.766 30.0083 401.489 29.8072 399.411 28.9744Z" fill="url(#paint22_linear_484_47595)"/>
<path d="M368.016 17.0181C366.307 16.4324 364.753 15.4684 363.471 14.1984C361.95 12.7204 360.87 10.8502 360.353 8.79643C359.836 6.74263 359.901 4.58595 360.541 2.56693C361.503 -0.329752 363.563 -2.73644 366.281 -4.13848C369 -5.54051 372.16 -5.82663 375.087 -4.93565C376.824 -4.32143 378.409 -3.34265 379.734 -2.06551C381.201 -0.522386 382.223 1.38613 382.694 3.45949C383.165 5.53284 383.067 7.69442 382.411 9.717C381.8 11.4097 380.836 12.9542 379.582 14.2487C378.081 15.7021 376.215 16.726 374.18 17.2133C372.145 17.7005 370.016 17.6331 368.016 17.0181Z" fill="url(#paint23_linear_484_47595)"/>
<path d="M334.98 8.01674C332.953 7.47354 331.1 6.41316 329.602 4.93863C328.227 3.53369 327.234 1.79958 326.715 -0.0991478C326.196 -1.99788 326.168 -3.99822 326.636 -5.91044C327 -7.37942 327.65 -8.76182 328.547 -9.97835C329.445 -11.1949 330.572 -12.2216 331.866 -12.9998C333.16 -13.778 334.593 -14.2922 336.085 -14.5131C337.577 -14.734 339.098 -14.6571 340.56 -14.287C342.589 -13.8487 344.433 -12.7911 345.839 -11.2593C347.26 -9.88393 348.296 -8.15756 348.843 -6.25338C349.39 -4.3492 349.429 -2.33413 348.955 -0.410217C348.462 1.5927 347.437 3.42388 345.989 4.88819C344.577 6.31524 342.822 7.35279 340.893 7.90079C338.965 8.44879 336.929 8.48872 334.98 8.01674Z" fill="url(#paint24_linear_484_47595)"/>
<path d="M303.6 0.503773C301.34 0.0925255 299.252 -0.985548 297.602 -2.59372C296.284 -3.89727 295.295 -5.49896 294.717 -7.26544C294.138 -9.03191 293.987 -10.9121 294.275 -12.7494C294.542 -14.2571 295.103 -15.6965 295.925 -16.9842C296.748 -18.2719 297.816 -19.3825 299.068 -20.2514C300.319 -21.1204 301.73 -21.7306 303.217 -22.0467C304.704 -22.3627 306.239 -22.3783 307.733 -22.0926C309.966 -21.6471 312.028 -20.5731 313.68 -18.9952C314.995 -17.6916 315.98 -16.0882 316.55 -14.3206C317.12 -12.5529 317.259 -10.6729 316.956 -8.83948C316.554 -6.5393 315.443 -4.42512 313.781 -2.79683C312.482 -1.44909 310.874 -0.443317 309.099 0.13217C307.323 0.707657 305.435 0.835264 303.6 0.503773Z" fill="url(#paint25_linear_484_47595)"/>
<path d="M102.786 5.02283C100.913 5.42363 98.9686 5.35328 97.1293 4.81813C95.29 4.28298 93.6132 3.29984 92.2502 1.9574C90.6935 0.395172 89.6102 -1.57298 89.1247 -3.72115C88.4612 -6.68573 89.0004 -9.79157 90.6246 -12.3615C92.2488 -14.9314 94.8264 -16.757 97.7953 -17.4402C99.6765 -17.8452 101.629 -17.7771 103.477 -17.2419C105.325 -16.7067 107.011 -15.7214 108.382 -14.3748C109.962 -12.8428 111.065 -10.8883 111.557 -8.74644C111.972 -6.85575 111.908 -4.8919 111.371 -3.032C110.835 -1.17209 109.842 0.525358 108.482 1.90718C106.924 3.47028 104.946 4.55205 102.786 5.02283Z" fill="url(#paint26_linear_484_47595)"/>
<path d="M69.9342 14.0143C67.9483 14.5876 65.8435 14.6211 63.84 14.1113C61.8366 13.6014 60.0081 12.567 58.546 11.1162C57.1361 9.74182 56.1264 8.01558 55.6234 6.11958C55.1909 4.68594 55.0487 3.1816 55.2052 1.69325C55.3616 0.204895 55.8135 -1.23806 56.5348 -2.55247C57.2562 -3.86687 58.2327 -5.02675 59.4081 -5.96527C60.5835 -6.9038 61.9346 -7.60239 63.3835 -8.02084C65.3554 -8.61823 67.4547 -8.66863 69.4534 -8.16654C71.4522 -7.66445 73.2741 -6.62905 74.7214 -5.17277C76.1313 -3.79838 77.1409 -2.07213 77.6439 -0.176141C78.2352 1.78018 78.2804 3.85889 77.7746 5.83863C77.2688 7.81837 76.231 9.62504 74.7717 11.0663C73.4144 12.4112 71.7574 13.421 69.9342 14.0143Z" fill="url(#paint27_linear_484_47595)"/>
<path d="M-4.41268 29.0405C-6.47507 29.829 -8.72151 30.0004 -10.8792 29.5338C-13.0369 29.0672 -15.013 27.9827 -16.5675 26.4121C-17.7639 25.2542 -18.6785 23.836 -19.2405 22.2672C-20.2695 19.4039 -20.132 16.2496 -18.8577 13.4872C-17.5834 10.7248 -15.2749 8.57645 -12.4318 7.50726C-10.3506 6.74365 -8.0924 6.60475 -5.9336 7.1075C-3.7748 7.61025 -1.80903 8.73287 -0.276966 10.3379C0.878279 11.4606 1.77357 12.8238 2.34568 14.3312C3.10711 16.4056 3.26003 18.6551 2.78634 20.8139C2.31265 22.9726 1.23217 24.9503 -0.327374 26.5132C-1.48145 27.6537 -2.87814 28.5177 -4.41268 29.0405Z" fill="url(#paint28_linear_484_47595)"/>
<path d="M429.328 843.402C427.714 844.508 425.807 844.981 423.918 844.746C422.028 844.51 420.266 843.578 418.92 842.103C418.541 841.633 418.223 841.109 417.973 840.545C416.791 838.47 416.407 835.966 416.903 833.581C417.4 831.195 418.737 829.123 420.623 827.818C422.248 826.703 424.174 826.234 426.077 826.489C427.98 826.744 429.745 827.709 431.078 829.221C431.509 829.687 431.904 830.191 432.261 830.727C433.265 832.515 433.699 834.619 433.493 836.707C433.288 838.795 432.455 840.748 431.126 842.259C430.564 842.707 429.961 843.09 429.328 843.402Z" fill="url(#paint29_linear_484_47595)"/>
<path d="M405.647 857.503C403.928 858.435 401.952 858.784 400.017 858.495C398.083 858.206 396.294 857.297 394.921 855.903C394.262 855.25 393.706 854.502 393.271 853.683C392.698 852.621 392.342 851.456 392.223 850.255C392.105 849.054 392.227 847.841 392.583 846.688C392.938 845.535 393.519 844.464 394.293 843.538C395.066 842.612 396.016 841.85 397.087 841.296C398.823 840.373 400.807 840.025 402.754 840.303C404.7 840.582 406.508 841.471 407.916 842.844C408.506 843.523 409.041 844.247 409.515 845.012C410.424 846.76 410.754 848.753 410.458 850.701C410.161 852.649 409.253 854.453 407.865 855.851C407.213 856.51 406.465 857.067 405.647 857.503Z" fill="url(#paint30_linear_484_47595)"/>
<path d="M380.626 868.543C378.943 869.254 377.066 869.482 375.241 869.196C373.416 868.91 371.726 868.125 370.393 866.941C369.574 866.179 368.915 865.285 368.449 864.303C367.476 862.277 367.409 859.979 368.261 857.908C369.113 855.836 370.816 854.156 373.002 853.231C374.688 852.52 376.57 852.296 378.397 852.591C380.224 852.885 381.911 853.683 383.235 854.88C384.07 855.64 384.746 856.534 385.23 857.519C386.005 859.078 386.239 860.819 385.9 862.505C385.561 864.191 384.666 865.741 383.337 866.941C382.539 867.614 381.622 868.156 380.626 868.543Z" fill="url(#paint31_linear_484_47595)"/>
<path d="M355.688 879.494C353.998 880.093 352.169 880.203 350.418 879.809C348.667 879.416 347.066 878.536 345.805 877.274C344.875 876.352 344.193 875.216 343.818 873.969C343.364 872.859 343.139 871.669 343.157 870.472C343.175 869.274 343.435 868.092 343.922 866.995C344.409 865.899 345.114 864.909 345.994 864.085C346.874 863.261 347.912 862.619 349.047 862.196C350.726 861.607 352.539 861.498 354.278 861.882C356.018 862.266 357.612 863.126 358.877 864.365C359.77 865.314 360.479 866.416 360.969 867.618C361.585 869.274 361.705 871.069 361.316 872.79C360.926 874.511 360.043 876.086 358.773 877.325C357.919 878.264 356.865 879.004 355.688 879.494Z" fill="url(#paint32_linear_484_47595)"/>
<path d="M329.532 888.86C328.07 889.328 326.52 889.355 325.045 888.936C323.571 888.518 322.229 887.67 321.161 886.484C320.142 885.439 319.392 884.121 318.985 882.661C318.673 881.501 318.574 880.286 318.693 879.084C318.812 877.882 319.147 876.717 319.679 875.657C320.21 874.597 320.928 873.661 321.791 872.904C322.654 872.147 323.645 871.583 324.708 871.245C326.153 870.762 327.692 870.719 329.158 871.12C330.625 871.52 331.964 872.349 333.032 873.518C334.07 874.598 334.807 875.977 335.16 877.496C335.582 879.064 335.607 880.728 335.233 882.311C334.858 883.894 334.097 885.336 333.032 886.484C332.087 887.612 330.876 888.435 329.532 888.86Z" fill="url(#paint33_linear_484_47595)"/>
<path d="M302.855 895.147C301.48 895.474 300.053 895.424 298.7 895.001C297.348 894.578 296.112 893.796 295.105 892.724C293.977 891.464 293.178 889.898 292.79 888.188C292.322 885.811 292.729 883.329 293.922 881.276C295.115 879.223 296.999 877.762 299.169 877.209C300.543 876.863 301.975 876.903 303.331 877.327C304.687 877.751 305.921 878.544 306.919 879.631C308.108 880.841 308.918 882.428 309.235 884.167C309.556 885.666 309.521 887.23 309.132 888.71C308.744 890.189 308.014 891.536 307.014 892.621C305.861 893.856 304.424 894.728 302.855 895.147Z" fill="url(#paint34_linear_484_47595)"/>
<path d="M276.294 899.869C274.99 900.057 273.66 899.94 272.408 899.528C271.155 899.115 270.014 898.417 269.072 897.488C267.758 896.215 266.896 894.542 266.617 892.727C266.356 890.526 266.947 888.308 268.266 886.534C269.584 884.761 271.53 883.568 273.698 883.204C275.002 883.001 276.336 883.11 277.591 883.524C278.846 883.937 279.986 884.643 280.92 885.585C282.175 886.894 283.013 888.552 283.327 890.346C283.508 891.673 283.385 893.023 282.968 894.294C282.551 895.565 281.85 896.723 280.92 897.678C279.618 898.841 278.012 899.601 276.294 899.869Z" fill="url(#paint35_linear_484_47595)"/>
<path d="M248.92 902.981C247.583 903.102 246.234 902.944 244.974 902.518C243.714 902.092 242.575 901.41 241.645 900.522C240.108 899.139 239.172 897.29 239.013 895.321C238.812 893.105 239.571 890.906 241.125 889.198C242.68 887.49 244.905 886.412 247.32 886.196C248.683 886.096 250.053 886.268 251.336 886.701C252.619 887.134 253.784 887.816 254.75 888.702C256.265 890.095 257.18 891.941 257.33 893.903C257.448 895.127 257.268 896.359 256.804 897.512C256.34 898.664 255.604 899.708 254.647 900.569C253.13 901.995 251.089 902.855 248.92 902.981Z" fill="url(#paint36_linear_484_47595)"/>
<path d="M221.529 904.547C220.422 904.587 219.318 904.379 218.288 903.937C217.257 903.494 216.32 902.826 215.535 901.973C213.94 900.274 213.01 897.968 212.939 895.538C212.92 894.328 213.12 893.126 213.527 892C213.935 890.874 214.541 889.847 215.313 888.976C216.084 888.106 217.005 887.41 218.023 886.929C219.041 886.447 220.136 886.189 221.246 886.168C223.469 886.177 225.608 887.096 227.24 888.743C228.8 890.483 229.709 892.796 229.789 895.229C229.803 896.463 229.589 897.687 229.159 898.828C228.729 899.969 228.092 901.004 227.287 901.87C225.753 903.534 223.692 904.492 221.529 904.547Z" fill="url(#paint37_linear_484_47595)"/>
<path d="M194.089 904.528C191.805 904.452 189.637 903.509 188.026 901.892C187.109 900.997 186.398 899.914 185.942 898.718C185.486 897.522 185.295 896.241 185.383 894.964C185.43 893.762 185.714 892.581 186.218 891.489C186.723 890.397 187.439 889.414 188.324 888.598C189.21 887.782 190.248 887.148 191.38 886.732C192.511 886.316 193.714 886.127 194.919 886.176C197.227 886.258 199.415 887.22 201.033 888.864C201.96 889.755 202.681 890.835 203.146 892.032C203.611 893.228 203.81 894.511 203.728 895.791C203.633 898.076 202.67 900.239 201.033 901.84C200.15 902.775 199.068 903.502 197.866 903.967C196.665 904.433 195.374 904.624 194.089 904.528Z" fill="url(#paint38_linear_484_47595)"/>
<path d="M167.429 902.948C165.33 902.655 163.384 901.68 161.891 900.173C160.951 899.214 160.237 898.055 159.802 896.783C159.367 895.511 159.222 894.158 159.378 892.822C159.518 891.613 159.895 890.444 160.486 889.381C161.078 888.319 161.872 887.383 162.825 886.629C163.778 885.874 164.87 885.316 166.038 884.985C167.206 884.654 168.428 884.558 169.634 884.701C171.758 884.96 173.731 885.94 175.223 887.477C176.141 888.459 176.832 889.631 177.248 890.909C177.665 892.188 177.796 893.543 177.634 894.878C177.416 896.928 176.491 898.837 175.018 900.275C174.048 901.282 172.857 902.048 171.539 902.512C170.222 902.976 168.814 903.125 167.429 902.948Z" fill="url(#paint39_linear_484_47595)"/>
<path d="M140.137 898.255C138.52 897.905 137.026 897.065 135.821 895.828C134.85 894.761 134.123 893.456 133.699 892.02C133.275 890.583 133.167 889.057 133.382 887.566C133.804 885.172 135.063 883.057 136.888 881.676C138.713 880.294 140.958 879.758 143.138 880.182C144.788 880.465 146.315 881.314 147.501 882.609C148.518 883.663 149.278 884.981 149.712 886.442C150.147 887.904 150.241 889.462 149.987 890.974C149.655 892.769 148.857 894.42 147.688 895.725C146.712 896.792 145.514 897.58 144.198 898.021C142.881 898.462 141.487 898.542 140.137 898.255Z" fill="url(#paint40_linear_484_47595)"/>
<path d="M112.603 892.019C111.026 891.623 109.589 890.857 108.432 889.797C107.302 888.766 106.481 887.485 106.048 886.077C105.616 884.67 105.585 883.184 105.96 881.763C106.26 880.692 106.788 879.685 107.512 878.801C108.236 877.917 109.143 877.173 110.181 876.612C111.219 876.05 112.367 875.681 113.56 875.527C114.753 875.373 115.968 875.436 117.135 875.713C118.781 876.045 120.274 876.838 121.409 877.982C122.538 878.992 123.353 880.26 123.769 881.656C124.185 883.052 124.188 884.525 123.777 885.922C123.429 887.416 122.605 888.781 121.409 889.844C120.275 890.881 118.866 891.626 117.321 892.008C115.777 892.389 114.15 892.393 112.603 892.019Z" fill="url(#paint41_linear_484_47595)"/>
<path d="M87.0136 884.257C85.7637 883.782 84.6229 883.06 83.6595 882.134C82.5505 881.056 81.7708 879.686 81.4112 878.183C81.0516 876.68 81.1268 875.106 81.6281 873.644C82.3114 871.522 83.8074 869.756 85.7899 868.731C87.7723 867.706 90.0802 867.505 92.2103 868.172C93.4943 868.582 94.6609 869.294 95.6117 870.248C96.7071 871.344 97.4735 872.725 97.8241 874.234C98.1747 875.743 98.0956 877.319 97.5958 878.785C97.2331 880.077 96.5319 881.25 95.5644 882.181C94.4585 883.264 93.0802 884.029 91.5751 884.394C90.07 884.759 88.494 884.712 87.0136 884.257Z" fill="url(#paint42_linear_484_47595)"/>
<path d="M60.9002 876.386C59.7896 875.851 58.7634 875.157 57.8541 874.326C56.5636 873.058 55.6824 871.434 55.3236 869.662C54.9648 867.891 55.1448 866.053 55.8406 864.385C56.2794 863.267 56.935 862.247 57.7699 861.383C58.6048 860.519 59.6025 859.827 60.7057 859.349C61.809 858.87 62.9962 858.614 64.199 858.594C65.4019 858.574 66.5968 858.792 67.7153 859.234C68.88 859.699 69.935 860.4 70.813 861.294C72.1052 862.55 72.9884 864.165 73.3475 865.929C73.7067 867.693 73.5252 869.524 72.8266 871.184C72.4092 872.331 71.7387 873.369 70.8646 874.223C69.5852 875.497 67.9663 876.378 66.2001 876.761C64.4339 877.144 62.5946 877.014 60.9002 876.386Z" fill="url(#paint43_linear_484_47595)"/>
<path d="M35.8599 865.376C34.9266 864.921 34.0691 864.324 33.3177 863.605C31.9975 862.26 31.1128 860.545 30.7796 858.687C30.4463 856.828 30.68 854.911 31.45 853.188C32.5057 850.959 34.3982 849.242 36.7126 848.412C39.027 847.582 41.5748 847.707 43.7976 848.76C44.7231 849.228 45.5788 849.825 46.3397 850.531C47.6537 851.881 48.5341 853.595 48.8671 855.452C49.2001 857.309 48.9702 859.224 48.2073 860.949C47.7297 861.872 47.137 862.729 46.4434 863.501C45.0824 864.864 43.3378 865.774 41.4452 866.109C39.5526 866.445 37.6031 866.189 35.8599 865.376Z" fill="url(#paint44_linear_484_47595)"/>
<path d="M11.9083 851.375C11.2608 850.966 10.6586 850.49 10.1118 849.954C8.80321 848.659 7.96264 846.965 7.72292 845.138C7.4832 843.311 7.85801 841.457 8.78809 839.867C9.88003 837.934 11.6932 836.514 13.8294 835.92C15.9656 835.325 18.2502 835.603 20.1814 836.694C20.8564 837.084 21.4765 837.561 22.0252 838.115C23.3238 839.404 24.1655 841.083 24.4216 842.896C24.6777 844.708 24.3341 846.556 23.4434 848.154C23.0359 848.818 22.5606 849.437 22.0252 850.001C20.7181 851.302 19.0227 852.14 17.1967 852.388C15.3707 852.636 13.5139 852.28 11.9083 851.375Z" fill="url(#paint45_linear_484_47595)"/>
<path d="M-11.1924 837.29C-11.6934 836.951 -12.1745 836.588 -12.634 836.202C-14.14 834.836 -15.0778 833.03 -15.2847 831.095C-15.4916 829.161 -14.9545 827.221 -13.7666 825.612C-13.1111 824.686 -12.2612 823.889 -11.2667 823.267C-10.2721 822.646 -9.15269 822.212 -7.97378 821.992C-6.79488 821.772 -5.58008 821.77 -4.40021 821.986C-3.22034 822.201 -2.09905 822.631 -1.10174 823.248C-0.542484 823.514 -0.037322 823.865 0.391317 824.289C1.87973 825.664 2.80538 827.469 3.01175 829.398C3.21813 831.328 2.69258 833.264 1.52396 834.878C1.20404 835.344 0.823711 835.773 0.391317 836.155C-1.09676 837.548 -3.06584 838.423 -5.17895 838.63C-7.29206 838.837 -9.41783 838.363 -11.1924 837.29Z" fill="url(#paint46_linear_484_47595)"/>
<path d="M428.477 166.289C427.961 165.951 427.479 165.572 427.036 165.157C425.547 163.805 424.615 162.023 424.399 160.113C424.183 158.203 424.697 156.283 425.851 154.681C426.504 153.748 427.352 152.943 428.346 152.312C429.34 151.681 430.461 151.237 431.643 151.004C432.825 150.772 434.046 150.756 435.235 150.958C436.424 151.16 437.558 151.575 438.571 152.18C439.081 152.506 439.548 152.887 439.961 153.312C441.483 154.663 442.444 156.457 442.679 158.385C442.914 160.314 442.408 162.258 441.249 163.883C440.864 164.329 440.452 164.754 440.013 165.157C438.533 166.543 436.572 167.415 434.467 167.622C432.362 167.828 430.245 167.357 428.477 166.289Z" fill="url(#paint47_linear_484_47595)"/>
<path d="M405.804 152.87C405.139 152.462 404.519 151.987 403.954 151.451C402.603 150.164 401.724 148.462 401.457 146.617C401.19 144.773 401.552 142.893 402.483 141.277C403.021 140.323 403.743 139.483 404.606 138.807C405.47 138.131 406.459 137.631 407.517 137.336C408.574 137.042 409.68 136.958 410.77 137.091C411.86 137.223 412.913 137.568 413.869 138.107C414.58 138.425 415.223 138.875 415.766 139.432C417.063 140.744 417.898 142.441 418.146 144.266C418.394 146.092 418.042 147.949 417.142 149.558C416.754 150.222 416.292 150.841 415.766 151.403C414.488 152.689 412.826 153.527 411.03 153.792C409.234 154.056 407.4 153.733 405.804 152.87Z" fill="url(#paint48_linear_484_47595)"/>
<path d="M382.114 140.72C381.189 140.292 380.334 139.747 379.574 139.101C378.235 137.881 377.338 136.312 377.005 134.608C376.671 132.903 376.916 131.145 377.708 129.573C378.229 128.57 378.961 127.671 379.861 126.929C380.762 126.187 381.814 125.615 382.956 125.248C384.097 124.88 385.307 124.724 386.515 124.788C387.723 124.852 388.905 125.134 389.994 125.62C390.9 126.009 391.724 126.541 392.43 127.192C393.821 128.451 394.752 130.076 395.096 131.842C395.439 133.608 395.178 135.428 394.348 137.052C393.886 137.902 393.273 138.675 392.534 139.339C391.161 140.524 389.425 141.292 387.561 141.539C385.697 141.786 383.795 141.5 382.114 140.72Z" fill="url(#paint49_linear_484_47595)"/>
<path d="M358.128 130.332C357.02 129.883 356.007 129.257 355.135 128.485C353.841 127.332 352.945 125.855 352.56 124.238C352.174 122.622 352.316 120.936 352.968 119.393C353.411 118.358 354.074 117.414 354.917 116.615C355.76 115.816 356.767 115.178 357.88 114.738C358.993 114.298 360.19 114.064 361.401 114.05C362.613 114.036 363.816 114.242 364.941 114.657C366.089 115.111 367.139 115.753 368.037 116.551C369.317 117.713 370.191 119.198 370.55 120.817C370.908 122.436 370.734 124.116 370.05 125.644C369.594 126.68 368.929 127.629 368.089 128.438C366.799 129.593 365.175 130.385 363.41 130.721C361.645 131.056 359.813 130.922 358.128 130.332Z" fill="url(#paint50_linear_484_47595)"/>
<path d="M334.214 121.322C332.829 120.96 331.569 120.275 330.557 119.332C329.365 118.228 328.521 116.848 328.113 115.338C327.705 113.828 327.748 112.245 328.239 110.756C328.602 109.697 329.189 108.714 329.966 107.864C330.743 107.014 331.695 106.314 332.767 105.803C333.839 105.292 335.01 104.981 336.213 104.888C337.416 104.795 338.628 104.921 339.778 105.26C341.202 105.651 342.496 106.369 343.538 107.344C344.721 108.454 345.555 109.836 345.954 111.345C346.353 112.855 346.302 114.436 345.805 115.92C345.317 117.163 344.544 118.294 343.538 119.237C342.335 120.329 340.832 121.1 339.19 121.467C337.548 121.835 335.828 121.784 334.214 121.322Z" fill="url(#paint51_linear_484_47595)"/>
<path d="M308.81 115.342C307.159 114.957 305.665 114.077 304.529 112.82C303.398 111.707 302.575 110.32 302.141 108.795C301.707 107.27 301.677 105.659 302.054 104.119C302.662 101.76 304.18 99.7373 306.277 98.4928C308.374 97.2483 310.879 96.8831 313.245 97.4769C314.858 97.9281 316.33 98.7781 317.526 99.9482C318.635 101.063 319.436 102.446 319.852 103.961C320.267 105.477 320.283 107.074 319.898 108.598C319.553 110.227 318.726 111.715 317.526 112.871C316.4 113.984 315.01 114.794 313.486 115.226C311.962 115.658 310.354 115.698 308.81 115.342Z" fill="url(#paint52_linear_484_47595)"/>
<path d="M283.278 109.277C281.494 108.936 279.857 108.06 278.587 106.769C277.484 105.748 276.66 104.466 276.191 103.042C275.722 101.619 275.624 100.101 275.907 98.6295C276.335 96.2418 277.698 94.1199 279.698 92.7285C281.698 91.3371 284.172 90.7899 286.577 91.2067C288.383 91.6132 290.053 92.4774 291.423 93.7151C292.47 94.762 293.25 96.0422 293.698 97.4491C294.146 98.8559 294.25 100.349 294 101.803C293.713 103.739 292.81 105.533 291.423 106.923C290.356 107.937 289.059 108.681 287.641 109.091C286.223 109.501 284.726 109.565 283.278 109.277Z" fill="url(#paint53_linear_484_47595)"/>
<path d="M257.584 106.268C255.648 105.982 253.855 105.082 252.466 103.699C251.477 102.725 250.72 101.54 250.25 100.233C249.781 98.9248 249.611 97.5275 249.753 96.1446C249.892 94.9379 250.268 93.7709 250.859 92.7109C251.45 91.6509 252.245 90.7189 253.196 89.9688C254.148 89.2187 255.238 88.6653 256.404 88.3406C257.57 88.0159 258.789 87.9262 259.989 88.0768C262.108 88.2915 264.075 89.2788 265.517 90.8517C266.458 91.7983 267.172 92.9469 267.606 94.2109C268.041 95.4748 268.184 96.8212 268.025 98.1487C267.828 100.223 266.924 102.165 265.466 103.647C264.463 104.694 263.221 105.48 261.848 105.936C260.474 106.393 259.011 106.507 257.584 106.268Z" fill="url(#paint54_linear_484_47595)"/>
<path d="M230.981 103.311C228.708 103.256 226.548 102.31 224.961 100.673C224.038 99.7782 223.31 98.7 222.822 97.507C222.335 96.314 222.1 95.0323 222.132 93.7432C222.252 91.2962 223.332 88.9969 225.135 87.3489C226.938 85.7009 229.318 84.8387 231.752 84.9512C234.025 85.0057 236.185 85.9524 237.772 87.5888C238.7 88.4968 239.424 89.5946 239.895 90.808C240.365 92.0214 240.571 93.3221 240.498 94.6224C240.379 96.8916 239.447 99.0409 237.875 100.673C236.974 101.575 235.895 102.275 234.707 102.73C233.519 103.184 232.25 103.382 230.981 103.311Z" fill="url(#paint55_linear_484_47595)"/>
<path d="M205.484 103.32C204.279 103.363 203.078 103.155 201.956 102.71C200.834 102.265 199.816 101.592 198.963 100.732C198.085 99.9086 197.379 98.917 196.885 97.8154C196.392 96.7137 196.121 95.5241 196.088 94.3158C196.067 93.1062 196.284 91.9043 196.724 90.779C197.165 89.6536 197.821 88.6267 198.655 87.7569C199.49 86.8872 200.486 86.1917 201.587 85.71C202.688 85.2283 203.873 84.97 205.073 84.9498C206.275 84.8969 207.474 85.0948 208.596 85.5311C209.719 85.9674 210.739 86.6327 211.594 87.4853C212.497 88.2994 213.22 89.2962 213.716 90.4107C214.211 91.5252 214.468 92.7323 214.469 93.9535C214.486 95.1891 214.258 96.4156 213.8 97.5616C213.342 98.7076 212.662 99.7503 211.799 100.629C210.98 101.481 209.998 102.159 208.913 102.621C207.828 103.083 206.662 103.321 205.484 103.32Z" fill="url(#paint56_linear_484_47595)"/>
<path d="M178.518 104.816C177.163 104.946 175.795 104.773 174.515 104.309C173.234 103.846 172.072 103.103 171.112 102.135C169.662 100.575 168.759 98.5836 168.541 96.4628C168.341 94.0297 169.111 91.6165 170.682 89.7514C172.254 87.8863 174.498 86.7212 176.924 86.5112C178.267 86.3887 179.621 86.5708 180.886 87.0438C182.15 87.5169 183.292 88.2688 184.227 89.244C185.708 90.7469 186.633 92.7113 186.85 94.8128C186.982 96.1597 186.815 97.5192 186.362 98.794C185.908 100.069 185.179 101.227 184.227 102.186C182.688 103.703 180.668 104.633 178.518 104.816Z" fill="url(#paint57_linear_484_47595)"/>
<path d="M153.088 107.828C151.664 108.031 150.212 107.905 148.844 107.461C147.477 107.017 146.231 106.266 145.202 105.266C143.764 103.905 142.837 102.097 142.573 100.141C142.202 97.7372 142.8 95.2846 144.239 93.3171C145.677 91.3496 147.838 90.0265 150.253 89.6358C151.677 89.4291 153.13 89.5529 154.498 89.9975C155.866 90.442 157.112 91.1951 158.138 92.1981C159.489 93.6218 160.401 95.4 160.767 97.3227C160.957 98.7502 160.819 100.202 160.364 101.569C159.908 102.936 159.148 104.182 158.138 105.215C156.764 106.58 155.001 107.492 153.088 107.828Z" fill="url(#paint58_linear_484_47595)"/>
<path d="M127.631 112.291C126.134 112.63 124.577 112.59 123.099 112.175C121.621 111.761 120.27 110.984 119.167 109.916C117.943 108.628 117.072 107.045 116.638 105.322C116.115 102.947 116.555 100.461 117.861 98.4094C119.167 96.3579 121.233 94.908 123.606 94.3774C125.102 94.0244 126.664 94.057 128.144 94.4724C129.625 94.8877 130.975 95.6721 132.07 96.7521C133.37 97.9837 134.253 99.5896 134.599 101.347C134.924 102.861 134.868 104.432 134.435 105.918C134.003 107.405 133.208 108.761 132.122 109.865C130.902 111.106 129.338 111.951 127.631 112.291Z" fill="url(#paint59_linear_484_47595)"/>
<path d="M102.181 119.776C100.603 120.263 98.9208 120.309 97.3181 119.909C95.7154 119.51 94.2533 118.68 93.0904 117.51C91.9586 116.423 91.1384 115.054 90.7144 113.545C90.0691 111.21 90.3606 108.716 91.5271 106.592C92.6936 104.467 94.6436 102.879 96.9642 102.163C98.5568 101.701 100.244 101.673 101.852 102.08C103.459 102.488 104.928 103.317 106.106 104.481C107.185 105.572 107.967 106.919 108.379 108.395C108.853 109.982 108.888 111.667 108.479 113.272C108.07 114.877 107.232 116.342 106.055 117.51C105.001 118.612 103.659 119.397 102.181 119.776Z" fill="url(#paint60_linear_484_47595)"/>
<path d="M76.9222 127.212C75.2627 127.855 73.4508 128.006 71.7064 127.647C69.9619 127.288 68.3601 126.435 67.0954 125.191C66.1619 124.24 65.4329 123.111 64.9524 121.873C64.0769 119.61 64.1344 117.097 65.1125 114.876C66.0905 112.654 67.9106 110.904 70.1794 110.003C71.8571 109.405 73.6714 109.293 75.4111 109.678C77.1508 110.064 78.7443 110.931 80.0061 112.18C80.9397 113.1 81.6541 114.216 82.0969 115.446C82.7476 117.116 82.8913 118.938 82.5106 120.688C82.1298 122.438 81.241 124.039 79.9538 125.294C79.0857 126.132 78.054 126.784 76.9222 127.212Z" fill="url(#paint61_linear_484_47595)"/>
<path d="M52.9657 137.651C51.2794 138.476 49.3775 138.75 47.5276 138.435C45.6777 138.12 43.973 137.231 42.6533 135.894C41.8241 135.13 41.1424 134.219 40.6423 133.207C39.6409 130.978 39.5555 128.443 40.4047 126.151C41.2538 123.859 42.9693 121.995 45.1798 120.961C46.9016 120.197 48.8168 119.986 50.663 120.356C52.5092 120.726 54.1961 121.659 55.4923 123.028C56.2523 123.777 56.8799 124.651 57.3485 125.611C58.1524 127.317 58.4007 129.232 58.0583 131.087C57.7159 132.942 56.8002 134.642 55.4408 135.946C54.7375 136.674 53.8959 137.254 52.9657 137.651Z" fill="url(#paint62_linear_484_47595)"/>
<path d="M28.8175 148.34C27.0894 149.157 25.1251 149.455 23.2023 149.192C21.2794 148.929 19.4953 148.118 18.102 146.874C17.4232 146.264 16.8499 145.562 16.402 144.793C15.8294 143.82 15.4737 142.753 15.3556 141.652C15.2376 140.552 15.3597 139.441 15.7146 138.385C16.0695 137.328 16.6501 136.347 17.4227 135.499C18.1953 134.65 19.1443 133.952 20.2142 133.444C21.9368 132.588 23.9141 132.263 25.8533 132.519C27.7926 132.774 29.5906 133.596 30.9811 134.863C31.6112 135.465 32.1643 136.131 32.6296 136.849C33.5449 138.462 33.8833 140.299 33.5966 142.098C33.3099 143.898 32.4128 145.569 31.0326 146.874C30.3428 147.421 29.6015 147.912 28.8175 148.34Z" fill="url(#paint63_linear_484_47595)"/>
<path d="M435.427 765C433.946 766.166 432.091 766.758 430.205 766.664C428.32 766.57 426.533 765.797 425.176 764.49L424.561 763.928C423.268 762.349 422.655 760.324 422.857 758.296C423.058 756.269 424.058 754.403 425.638 753.107C427.097 751.907 428.95 751.284 430.841 751.36C432.733 751.435 434.53 752.203 435.888 753.516L436.452 754.077C437.62 755.55 438.215 757.392 438.131 759.267C438.046 761.141 437.286 762.923 435.991 764.285L435.427 765Z" fill="url(#paint64_linear_484_47595)"/>
<path d="M416.636 779.003C415.137 780.09 413.296 780.597 411.453 780.431C409.609 780.265 407.888 779.436 406.607 778.098C406.337 777.845 406.1 777.558 405.904 777.244C405.308 776.429 404.879 775.504 404.644 774.521C404.409 773.538 404.372 772.518 404.536 771.521C404.699 770.523 405.06 769.569 405.596 768.713C406.133 767.858 406.834 767.118 407.66 766.537C409.129 765.485 410.93 765.002 412.728 765.177C414.525 765.353 416.199 766.175 417.439 767.493L418.341 768.347C419.392 769.859 419.883 771.692 419.727 773.528C419.571 775.364 418.779 777.088 417.489 778.4L416.636 779.003Z" fill="url(#paint65_linear_484_47595)"/>
<path d="M397.725 791.59C396.27 792.475 394.564 792.856 392.871 792.673C391.179 792.491 389.593 791.756 388.359 790.582C387.956 790.128 387.603 789.623 387.2 789.119C386.668 788.263 386.311 787.31 386.15 786.315C385.988 785.32 386.026 784.303 386.26 783.322C386.494 782.342 386.921 781.418 387.514 780.604C388.108 779.789 388.857 779.101 389.718 778.58C391.142 777.673 392.828 777.269 394.507 777.434C396.187 777.598 397.763 778.321 398.984 779.487C399.432 779.953 399.837 780.46 400.192 781C401.117 782.457 401.516 784.187 401.324 785.902C401.132 787.617 400.359 789.215 399.135 790.43C398.723 790.882 398.248 791.273 397.725 791.59Z" fill="url(#paint66_linear_484_47595)"/>
<path d="M377.376 804.042C375.937 804.826 374.284 805.126 372.661 804.899C371.038 804.672 369.53 803.93 368.36 802.781C367.812 802.246 367.368 801.613 367.05 800.915C366.573 800.028 366.276 799.055 366.175 798.053C366.073 797.05 366.171 796.037 366.461 795.072C366.751 794.107 367.228 793.209 367.865 792.429C368.502 791.649 369.287 791.002 370.173 790.526C371.627 789.771 373.283 789.496 374.902 789.74C376.522 789.985 378.023 790.737 379.19 791.888C379.713 792.418 380.17 793.011 380.55 793.653C381.328 795.103 381.616 796.766 381.37 798.393C381.125 800.021 380.36 801.525 379.19 802.681C378.647 803.212 378.038 803.67 377.376 804.042Z" fill="url(#paint67_linear_484_47595)"/>
<path d="M357.064 813.499C355.614 814.14 354.002 814.325 352.445 814.027C350.887 813.729 349.456 812.963 348.343 811.832C347.776 811.136 347.27 810.392 346.831 809.609C346.045 807.743 346.017 805.644 346.751 803.758C347.485 801.871 348.924 800.346 350.763 799.506C352.201 798.864 353.802 798.685 355.345 798.992C356.889 799.3 358.3 800.079 359.383 801.224C359.999 801.833 360.495 802.552 360.845 803.345C361.492 804.761 361.694 806.341 361.423 807.875C361.153 809.409 360.424 810.824 359.333 811.933C358.668 812.577 357.902 813.106 357.064 813.499Z" fill="url(#paint68_linear_484_47595)"/>
<path d="M335.097 822.903C333.755 823.38 332.308 823.483 330.911 823.202C329.514 822.921 328.221 822.266 327.171 821.307C326.339 820.516 325.704 819.542 325.315 818.464C324.937 817.519 324.753 816.508 324.774 815.491C324.794 814.474 325.019 813.471 325.435 812.542C325.851 811.613 326.45 810.775 327.196 810.079C327.942 809.383 328.82 808.842 329.78 808.489C331.144 808.005 332.617 807.908 334.034 808.207C335.451 808.506 336.757 809.191 337.806 810.185C338.627 810.957 339.246 811.915 339.612 812.978C340.127 814.346 340.23 815.834 339.909 817.26C339.589 818.686 338.858 819.988 337.806 821.008C337.075 821.853 336.144 822.504 335.097 822.903Z" fill="url(#paint69_linear_484_47595)"/>
<path d="M312.234 830.697C311.04 831.095 309.768 831.122 308.561 830.776C307.353 830.43 306.257 829.724 305.394 828.736C304.551 827.853 303.934 826.743 303.603 825.519C303.094 823.585 303.288 821.511 304.144 819.731C304.999 817.95 306.451 816.601 308.194 815.966C309.409 815.61 310.689 815.608 311.905 815.96C313.121 816.313 314.232 817.008 315.127 817.977C315.934 818.854 316.519 819.945 316.825 821.145C317.178 822.462 317.206 823.857 316.908 825.19C316.61 826.524 315.995 827.747 315.127 828.736C314.341 829.662 313.342 830.34 312.234 830.697Z" fill="url(#paint70_linear_484_47595)"/>
<path d="M289.603 835.466C288.329 835.706 287.009 835.653 285.763 835.312C284.517 834.971 283.386 834.353 282.473 833.515C281.534 832.588 280.861 831.466 280.515 830.248C280.093 828.463 280.461 826.599 281.54 825.055C282.619 823.512 284.324 822.412 286.289 821.99C287.571 821.733 288.904 821.778 290.161 822.12C291.418 822.461 292.557 823.088 293.47 823.941C294.449 824.831 295.143 825.944 295.478 827.162C295.761 828.299 295.721 829.482 295.361 830.601C295.001 831.72 294.333 832.738 293.419 833.56C292.369 834.505 291.047 835.165 289.603 835.466Z" fill="url(#paint71_linear_484_47595)"/>
<path d="M267.76 840.116C266.578 840.301 265.369 840.211 264.228 839.852C263.086 839.493 262.044 838.876 261.183 838.048C259.994 836.884 259.228 835.358 259.007 833.711C258.835 832.719 258.864 831.703 259.093 830.722C259.322 829.742 259.747 828.817 260.341 828.003C260.936 827.19 261.689 826.503 262.555 825.985C263.42 825.467 264.382 825.127 265.382 824.987C266.568 824.795 267.783 824.888 268.927 825.256C270.07 825.624 271.11 826.258 271.959 827.105C273.121 828.268 273.882 829.769 274.135 831.391C274.307 832.581 274.205 833.794 273.837 834.939C273.469 836.083 272.844 837.129 272.01 837.997C270.851 839.13 269.364 839.871 267.76 840.116Z" fill="url(#paint72_linear_484_47595)"/>
<path d="M244.284 843.242C243.151 843.343 242.01 843.192 240.942 842.8C239.873 842.409 238.904 841.786 238.104 840.976C236.847 839.705 236.081 838.027 235.943 836.243C235.776 834.228 236.411 832.228 237.711 830.681C239.01 829.133 240.867 828.164 242.877 827.985C244.011 827.881 245.153 828.03 246.221 828.422C247.29 828.813 248.259 829.438 249.057 830.251C250.314 831.522 251.08 833.2 251.218 834.984C251.295 836.075 251.137 837.17 250.756 838.195C250.374 839.22 249.778 840.151 249.007 840.926C247.764 842.245 246.086 843.068 244.284 843.242Z" fill="url(#paint73_linear_484_47595)"/>
<path d="M220.673 844.805C218.654 844.816 216.709 844.039 215.249 842.639C213.811 841.251 212.981 839.349 212.939 837.348C212.899 835.311 213.663 833.342 215.065 831.869C216.467 830.396 218.393 829.54 220.422 829.487C221.432 829.47 222.435 829.652 223.375 830.024C224.314 830.395 225.171 830.949 225.897 831.654C226.642 832.339 227.236 833.172 227.642 834.1C228.049 835.028 228.258 836.032 228.257 837.045C228.263 839.095 227.47 841.066 226.047 842.538C225.354 843.264 224.519 843.84 223.595 844.23C222.67 844.62 221.676 844.816 220.673 844.805Z" fill="url(#paint74_linear_484_47595)"/>
<path d="M197.293 844.797C195.383 844.749 193.569 843.95 192.243 842.575C191.468 841.828 190.864 840.922 190.472 839.92C190.08 838.918 189.909 837.843 189.97 836.768C190.016 835.762 190.26 834.775 190.689 833.864C191.117 832.952 191.723 832.135 192.469 831.459C193.216 830.783 194.089 830.262 195.038 829.925C195.987 829.588 196.994 829.443 198 829.497C199.9 829.586 201.7 830.378 203.049 831.719C203.794 832.485 204.376 833.395 204.758 834.394C205.14 835.392 205.314 836.458 205.271 837.526C205.155 839.43 204.347 841.225 202.999 842.575C202.257 843.325 201.365 843.91 200.382 844.293C199.399 844.676 198.346 844.847 197.293 844.797Z" fill="url(#paint75_linear_484_47595)"/>
<path d="M173.879 841.69C172.087 841.536 170.41 840.751 169.153 839.478C168.367 838.65 167.77 837.666 167.402 836.591C167.034 835.515 166.903 834.374 167.018 833.245C167.261 831.234 168.291 829.397 169.887 828.128C171.483 826.859 173.518 826.26 175.556 826.458C177.311 826.677 178.94 827.474 180.181 828.72C180.984 829.523 181.586 830.5 181.939 831.574C182.292 832.647 182.386 833.788 182.214 834.904C182.068 836.605 181.332 838.203 180.13 839.428C179.341 840.264 178.363 840.904 177.277 841.297C176.192 841.69 175.027 841.825 173.879 841.69Z" fill="url(#paint76_linear_484_47595)"/>
<path d="M150.336 838.562C148.826 838.275 147.438 837.539 146.356 836.449C145.434 835.602 144.746 834.533 144.358 833.344C143.97 832.155 143.895 830.886 144.139 829.659C144.495 827.666 145.629 825.895 147.291 824.736C148.954 823.576 151.009 823.122 153.006 823.473C154.51 823.745 155.897 824.464 156.986 825.535C157.885 826.399 158.557 827.47 158.944 828.654C159.33 829.838 159.419 831.099 159.203 832.325C158.935 833.868 158.196 835.291 157.087 836.399C156.222 837.28 155.156 837.937 153.979 838.314C152.803 838.69 151.553 838.776 150.336 838.562Z" fill="url(#paint77_linear_484_47595)"/>
<path d="M128.345 833.822C127.001 833.487 125.768 832.81 124.764 831.856C123.831 830.923 123.159 829.763 122.814 828.49C122.469 827.217 122.463 825.876 122.797 824.6C123.027 823.617 123.452 822.69 124.046 821.874C124.64 821.057 125.391 820.368 126.256 819.847C127.121 819.325 128.082 818.982 129.081 818.838C130.081 818.694 131.099 818.751 132.077 819.006C133.432 819.34 134.67 820.037 135.657 821.022C136.59 821.955 137.263 823.115 137.608 824.388C137.953 825.661 137.958 827.003 137.624 828.279C137.321 829.619 136.638 830.843 135.657 831.806C134.73 832.764 133.562 833.457 132.276 833.811C130.99 834.166 129.633 834.17 128.345 833.822Z" fill="url(#paint78_linear_484_47595)"/>
<path d="M104.961 827.6C103.851 827.208 102.836 826.587 101.98 825.778C100.919 824.785 100.164 823.509 99.8059 822.1C99.4476 820.69 99.5006 819.207 99.9585 817.827C100.625 815.913 102.015 814.336 103.829 813.437C105.643 812.537 107.736 812.387 109.659 813.017C110.731 813.379 111.713 813.966 112.539 814.739C113.561 815.757 114.288 817.034 114.644 818.434C115 819.834 114.971 821.304 114.56 822.689C114.181 823.875 113.523 824.951 112.64 825.828C111.631 826.777 110.388 827.442 109.039 827.753C107.69 828.064 106.283 828.012 104.961 827.6Z" fill="url(#paint79_linear_484_47595)"/>
<path d="M82.9153 819.71C81.9565 819.322 81.0869 818.743 80.3595 818.008C79.2929 816.962 78.5651 815.621 78.2703 814.158C77.9754 812.695 78.1271 811.177 78.7057 809.801C79.0683 808.853 79.6196 807.988 80.3262 807.259C81.0329 806.53 81.8802 805.952 82.817 805.559C83.7538 805.166 84.7606 804.967 85.7767 804.973C86.7928 804.98 87.797 805.192 88.7287 805.597C89.6704 805.943 90.5254 806.49 91.2344 807.199C92.2837 808.255 92.9997 809.596 93.2937 811.055C93.5876 812.513 93.4467 814.026 92.8882 815.406C92.581 816.42 92.0104 817.335 91.2344 818.058C90.1679 819.126 88.8075 819.853 87.3263 820.147C85.845 820.441 84.3097 820.289 82.9153 819.71Z" fill="url(#paint80_linear_484_47595)"/>
<path d="M62.5983 810.387C61.7756 810.038 61.0469 809.5 60.4715 808.817C59.3332 807.72 58.5764 806.287 58.3121 804.729C58.0478 803.17 58.29 801.568 59.003 800.157C59.427 799.251 60.0257 798.438 60.7647 797.764C61.5038 797.09 62.3686 796.569 63.3096 796.23C64.2506 795.891 65.2492 795.742 66.2481 795.79C67.2471 795.838 68.2267 796.083 69.1308 796.511C69.9737 796.849 70.7212 797.388 71.3082 798.081C72.4196 799.194 73.1578 800.626 73.4209 802.177C73.6839 803.728 73.4589 805.323 72.7768 806.741C72.3888 807.527 71.8757 808.246 71.2576 808.868C70.142 809.975 68.7142 810.714 67.1662 810.985C65.6182 811.257 64.0242 811.048 62.5983 810.387Z" fill="url(#paint81_linear_484_47595)"/>
<path d="M42.1692 799.358C41.6425 798.971 41.1393 798.553 40.6621 798.106C39.4364 796.943 38.633 795.406 38.3784 793.738C38.1238 792.07 38.4323 790.365 39.2553 788.891C40.2849 787.143 41.9598 785.865 43.922 785.332C45.8841 784.798 47.9778 785.051 49.7552 786.036L51.3126 787.188C52.5188 788.377 53.3 789.927 53.536 791.601C53.772 793.275 53.4497 794.98 52.6188 796.454C52.2806 797.045 51.8382 797.571 51.3126 798.006C50.1755 799.243 48.6463 800.053 46.9815 800.299C45.3166 800.545 43.6175 800.213 42.1692 799.358Z" fill="url(#paint82_linear_484_47595)"/>
<path d="M21.8858 786.866C21.4217 786.567 20.9831 786.231 20.5742 785.861C19.3289 784.612 18.5614 782.969 18.4048 781.216C18.2482 779.463 18.7123 777.711 19.7167 776.263C20.8211 774.579 22.5477 773.397 24.5217 772.973C26.4956 772.55 28.5575 772.919 30.2598 774.001C30.6968 774.313 31.1023 774.666 31.4705 775.056C32.71 776.294 33.4824 777.921 33.657 779.66C33.8316 781.4 33.3978 783.147 32.4289 784.605C32.184 785.047 31.8784 785.453 31.5209 785.811C30.2928 787.082 28.6559 787.884 26.8952 788.077C25.1346 788.27 23.3619 787.841 21.8858 786.866Z" fill="url(#paint83_linear_484_47595)"/>
<path d="M3.04509 774.167L2.19276 773.236C0.893745 771.801 0.116557 769.898 0.00587735 767.883C-0.104802 765.868 0.458516 763.878 1.59105 762.283C2.83138 760.534 4.6512 759.388 6.65825 759.091C8.66529 758.793 10.6988 759.37 12.3206 760.695C12.6124 760.959 12.881 761.252 13.1228 761.571C14.4242 763.008 15.199 764.915 15.3006 766.933C15.4022 768.951 14.8236 770.94 13.6743 772.524C13.5193 772.851 13.316 773.147 13.0727 773.401C11.771 774.836 10.036 775.705 8.19101 775.846C6.34606 775.987 4.51712 775.39 3.04509 774.167Z" fill="url(#paint84_linear_484_47595)"/>
<path d="M415.143 227.379C414.84 227.17 414.554 226.935 414.291 226.677C413.004 225.36 412.231 223.626 412.111 221.789C411.992 219.951 412.534 218.132 413.64 216.659C414.864 215.058 416.666 214 418.662 213.709C420.657 213.419 422.686 213.921 424.316 215.106C424.64 215.347 424.942 215.615 425.219 215.908C426.506 217.225 427.279 218.959 427.399 220.796C427.518 222.634 426.976 224.453 425.871 225.926L425.119 226.727C423.819 228.029 422.09 228.813 420.254 228.933C418.418 229.052 416.601 228.5 415.143 227.379Z" fill="url(#paint85_linear_484_47595)"/>
<path d="M397.221 215.488C396.782 215.162 396.362 214.81 395.964 214.434C394.717 213.195 393.936 211.564 393.753 209.816C393.569 208.069 393.995 206.312 394.958 204.842C395.508 203.999 396.219 203.272 397.05 202.705C397.882 202.137 398.817 201.739 399.803 201.534C400.789 201.328 401.806 201.32 402.795 201.508C403.785 201.697 404.727 202.079 405.568 202.632C406.001 202.909 406.405 203.229 406.775 203.586C408.013 204.829 408.793 206.455 408.984 208.197C409.176 209.94 408.769 211.697 407.831 213.178C407.532 213.64 407.196 214.077 406.825 214.484C405.57 215.705 403.94 216.468 402.198 216.651C400.455 216.833 398.702 216.423 397.221 215.488Z" fill="url(#paint86_linear_484_47595)"/>
<path d="M377.746 203.439C377.166 203.139 376.638 202.747 376.185 202.277C374.948 201.108 374.138 199.558 373.882 197.874C373.627 196.189 373.941 194.467 374.775 192.983C375.807 191.22 377.485 189.931 379.452 189.393C381.419 188.855 383.517 189.11 385.299 190.104C385.841 190.399 386.348 190.755 386.809 191.165C388.008 192.358 388.788 193.909 389.033 195.584C389.278 197.26 388.975 198.97 388.169 200.459C387.819 201.108 387.378 201.703 386.86 202.226C385.681 203.399 384.152 204.152 382.506 204.371C380.86 204.59 379.188 204.262 377.746 203.439Z" fill="url(#paint87_linear_484_47595)"/>
<path d="M358.266 192.961C357.451 192.573 356.713 192.041 356.087 191.391C354.971 190.281 354.233 188.846 353.978 187.292C353.723 185.738 353.965 184.144 354.669 182.735C355.546 180.925 357.098 179.53 358.991 178.848C360.885 178.167 362.97 178.254 364.801 179.09C365.636 179.465 366.38 180.018 366.979 180.71C368.091 181.823 368.829 183.254 369.092 184.805C369.355 186.355 369.13 187.949 368.448 189.366C368.096 190.176 367.598 190.914 366.979 191.543C365.843 192.638 364.401 193.359 362.844 193.613C361.287 193.866 359.69 193.639 358.266 192.961Z" fill="url(#paint88_linear_484_47595)"/>
<path d="M337.228 183.975C336.273 183.587 335.408 183.009 334.684 182.275C333.619 181.233 332.89 179.896 332.587 178.435C332.285 176.975 332.425 175.457 332.988 174.077C333.35 173.13 333.898 172.265 334.6 171.534C335.301 170.803 336.141 170.219 337.071 169.819C338.001 169.418 339.001 169.208 340.013 169.201C341.025 169.194 342.029 169.39 342.964 169.777C343.888 170.172 344.733 170.731 345.458 171.427C346.535 172.472 347.276 173.815 347.587 175.284C347.899 176.754 347.765 178.283 347.204 179.676C346.84 180.617 346.279 181.47 345.558 182.175C344.505 183.271 343.151 184.028 341.667 184.349C340.183 184.669 338.637 184.539 337.228 183.975Z" fill="url(#paint89_linear_484_47595)"/>
<path d="M316.333 176.54C315.232 176.177 314.233 175.559 313.418 174.737C312.354 173.762 311.594 172.502 311.229 171.108C310.864 169.715 310.908 168.246 311.358 166.876C311.982 164.956 313.336 163.357 315.131 162.421C316.925 161.485 319.017 161.287 320.956 161.87C322.074 162.212 323.103 162.793 323.971 163.572C325.002 164.58 325.731 165.854 326.077 167.251C326.423 168.647 326.373 170.113 325.931 171.483C325.551 172.613 324.915 173.641 324.072 174.487C323.099 175.509 321.86 176.242 320.494 176.605C319.128 176.967 317.687 176.945 316.333 176.54Z" fill="url(#paint90_linear_484_47595)"/>
<path d="M295.428 170.473C294.069 170.161 292.829 169.452 291.862 168.432C290.906 167.503 290.208 166.335 289.838 165.045C289.468 163.755 289.438 162.389 289.752 161.084C290.326 159.143 291.607 157.498 293.334 156.484C295.06 155.469 297.103 155.162 299.045 155.624C300.424 156.017 301.685 156.753 302.712 157.767C303.594 158.743 304.233 159.92 304.573 161.199C304.914 162.477 304.948 163.821 304.671 165.115C304.296 166.465 303.587 167.695 302.611 168.687C301.656 169.57 300.498 170.197 299.243 170.509C297.989 170.821 296.677 170.808 295.428 170.473Z" fill="url(#paint91_linear_484_47595)"/>
<path d="M272.898 165.998C271.381 165.771 269.971 165.083 268.858 164.026C267.958 163.137 267.29 162.04 266.911 160.832C266.533 159.624 266.456 158.342 266.687 157.097C267.057 155.113 268.19 153.353 269.843 152.199C271.496 151.044 273.536 150.587 275.523 150.927C277.041 151.18 278.449 151.885 279.562 152.95C280.473 153.831 281.15 154.927 281.529 156.137C281.908 157.348 281.978 158.634 281.733 159.879C281.507 161.398 280.819 162.81 279.764 163.925C278.872 164.8 277.781 165.447 276.586 165.808C275.39 166.169 274.124 166.234 272.898 165.998Z" fill="url(#paint92_linear_484_47595)"/>
<path d="M251.081 163.036C249.137 162.798 247.332 161.983 245.944 160.716C245.087 159.909 244.435 158.939 244.034 157.876C243.633 156.813 243.493 155.682 243.624 154.564C243.741 153.562 244.075 152.59 244.606 151.706C245.136 150.823 245.854 150.044 246.718 149.415C247.581 148.787 248.572 148.321 249.634 148.045C250.696 147.768 251.808 147.688 252.904 147.807C254.855 147.953 256.68 148.741 258.041 150.026C258.924 150.838 259.591 151.823 259.993 152.907C260.395 153.991 260.521 155.144 260.361 156.279C260.153 158.004 259.294 159.608 257.931 160.817C257.037 161.623 255.96 162.24 254.777 162.623C253.593 163.007 252.331 163.148 251.081 163.036Z" fill="url(#paint93_linear_484_47595)"/>
<path d="M227.979 161.529C226.076 161.491 224.259 160.73 222.899 159.401C222.113 158.646 221.501 157.729 221.107 156.715C220.712 155.7 220.543 154.612 220.613 153.526C220.652 152.519 220.891 151.53 221.317 150.616C221.743 149.702 222.348 148.882 223.095 148.203C223.842 147.524 224.717 147 225.669 146.662C226.621 146.324 227.631 146.177 228.64 146.232C230.553 146.316 232.365 147.111 233.72 148.46C234.469 149.217 235.051 150.122 235.427 151.117C235.803 152.111 235.966 153.173 235.905 154.235C235.898 155.182 235.702 156.118 235.327 156.988C234.951 157.858 234.405 158.644 233.72 159.3C232.979 160.06 232.083 160.652 231.093 161.037C230.102 161.421 229.041 161.589 227.979 161.529Z" fill="url(#paint94_linear_484_47595)"/>
<path d="M207.035 160.003C206.024 160.044 205.015 159.882 204.066 159.527C203.118 159.173 202.249 158.632 201.511 157.938C200.095 156.49 199.255 154.573 199.151 152.548C199.123 150.508 199.899 148.539 201.309 147.068C202.719 145.597 204.65 144.743 206.684 144.69C208.706 144.668 210.654 145.446 212.108 146.856C213.552 148.284 214.397 150.213 214.468 152.246C214.488 153.271 214.303 154.289 213.924 155.241C213.544 156.193 212.978 157.059 212.258 157.787C210.878 159.189 209 159.986 207.035 160.003Z" fill="url(#paint95_linear_484_47595)"/>
<path d="M184.496 161.508C183.356 161.612 182.207 161.464 181.132 161.073C180.057 160.682 179.082 160.059 178.279 159.249C177.015 158.012 176.274 156.342 176.206 154.581C176.009 152.571 176.621 150.565 177.91 149.003C179.199 147.441 181.058 146.45 183.081 146.247C184.225 146.153 185.375 146.311 186.45 146.711C187.525 147.11 188.498 147.74 189.299 148.556C190.563 149.824 191.334 151.496 191.472 153.275C191.548 154.387 191.379 155.501 190.977 156.542C190.576 157.582 189.951 158.523 189.147 159.299C187.914 160.567 186.264 161.351 184.496 161.508Z" fill="url(#paint96_linear_484_47595)"/>
<path d="M162.011 164.514C160.833 164.696 159.628 164.604 158.491 164.246C157.354 163.888 156.315 163.274 155.454 162.451C154.287 161.276 153.527 159.759 153.286 158.122C152.966 156.119 153.455 154.072 154.647 152.43C155.839 150.788 157.634 149.685 159.64 149.363C160.83 149.196 162.042 149.299 163.187 149.665C164.331 150.031 165.377 150.651 166.247 151.477C167.38 152.677 168.134 154.182 168.416 155.806C168.605 156.998 168.507 158.218 168.13 159.365C167.753 160.511 167.108 161.552 166.247 162.4C165.105 163.548 163.617 164.291 162.011 164.514Z" fill="url(#paint97_linear_484_47595)"/>
<path d="M139.55 169.029C138.27 169.301 136.943 169.249 135.687 168.88C134.432 168.51 133.288 167.834 132.358 166.911C131.388 165.882 130.71 164.611 130.397 163.231C130.175 162.247 130.15 161.229 130.324 160.236C130.498 159.243 130.868 158.294 131.41 157.445C131.953 156.596 132.659 155.864 133.486 155.29C134.314 154.717 135.247 154.314 136.231 154.105C137.501 153.782 138.835 153.808 140.091 154.181C141.348 154.554 142.482 155.259 143.372 156.223C144.371 157.231 145.053 158.51 145.334 159.903C145.624 161.154 145.591 162.458 145.24 163.693C144.888 164.928 144.228 166.053 143.322 166.961C142.286 167.996 140.978 168.713 139.55 169.029Z" fill="url(#paint98_linear_484_47595)"/>
<path d="M118.733 174.989C117.4 175.397 115.981 175.439 114.626 175.111C113.271 174.782 112.032 174.096 111.041 173.124C110.082 172.225 109.409 171.069 109.106 169.797C108.807 168.844 108.703 167.842 108.798 166.849C108.892 165.856 109.185 164.891 109.659 164.01C110.132 163.129 110.777 162.35 111.556 161.717C112.336 161.084 113.234 160.61 114.199 160.322C115.521 159.934 116.925 159.907 118.261 160.244C119.597 160.581 120.816 161.27 121.789 162.237C122.724 163.123 123.408 164.235 123.776 165.463C124.161 166.78 124.185 168.174 123.845 169.503C123.505 170.832 122.813 172.047 121.84 173.023C120.974 173.91 119.91 174.584 118.733 174.989Z" fill="url(#paint99_linear_484_47595)"/>
<path d="M97.5933 180.97C96.2423 181.474 94.778 181.59 93.365 181.304C91.952 181.019 90.6464 180.343 89.5949 179.354C88.8034 178.557 88.2015 177.59 87.8343 176.527C87.4661 175.587 87.2902 174.583 87.3171 173.573C87.3441 172.564 87.5733 171.57 87.9911 170.651C88.4089 169.733 89.0067 168.908 89.749 168.226C90.4912 167.544 91.3626 167.019 92.3113 166.683C93.6554 166.135 95.1304 165.996 96.5526 166.283C97.9748 166.57 99.2814 167.271 100.31 168.298C101.11 169.127 101.743 170.104 102.171 171.176C102.665 172.548 102.766 174.032 102.464 175.459C102.162 176.887 101.468 178.201 100.461 179.253C99.65 180.04 98.6684 180.628 97.5933 180.97Z" fill="url(#paint100_linear_484_47595)"/>
<path d="M76.6023 189.97C75.1773 190.616 73.5893 190.807 72.0531 190.516C70.5168 190.225 69.1064 189.467 68.0128 188.345C67.4169 187.666 66.9077 186.916 66.497 186.11C65.7028 184.247 65.6593 182.147 66.3756 180.252C67.092 178.357 68.5122 176.816 70.337 175.953C71.7833 175.337 73.3807 175.172 74.9215 175.48C76.4623 175.788 77.8753 176.554 78.977 177.68C79.618 178.322 80.1323 179.08 80.4928 179.914C81.1452 181.332 81.3449 182.919 81.0644 184.455C80.784 185.992 80.0372 187.404 78.9265 188.497C78.2399 189.116 77.454 189.614 76.6023 189.97Z" fill="url(#paint101_linear_484_47595)"/>
<path d="M55.7469 200.49C54.2935 201.253 52.6346 201.532 51.0115 201.287C49.3884 201.042 47.8858 200.286 46.722 199.129C46.175 198.619 45.7151 198.023 45.3606 197.364C44.8712 196.477 44.5649 195.501 44.4601 194.494C44.3552 193.486 44.4538 192.468 44.7501 191.499C45.0464 190.53 45.5342 189.631 46.1848 188.854C46.8353 188.078 47.6352 187.44 48.5371 186.978C49.9638 186.193 51.6083 185.896 53.2196 186.133C54.8309 186.37 56.3205 187.127 57.4612 188.289C57.9989 188.857 58.4723 189.483 58.8729 190.155C59.6238 191.602 59.8966 193.251 59.652 194.863C59.4074 196.475 58.6581 197.969 57.5116 199.129C56.9809 199.653 56.3883 200.11 55.7469 200.49Z" fill="url(#paint102_linear_484_47595)"/>
<path d="M16.2995 190.996C14.8704 191.906 13.1783 192.31 11.4927 192.145C9.80718 191.98 8.22536 191.255 6.99954 190.085C6.48603 189.678 6.07131 189.159 5.78648 188.568C5.24235 187.722 4.87317 186.775 4.70059 185.783C4.52802 184.792 4.5556 183.776 4.78173 182.795C5.00785 181.814 5.4279 180.889 6.01715 180.073C6.60641 179.258 7.35292 178.569 8.21261 178.047C9.64166 177.137 11.3338 176.732 13.0194 176.897C14.7049 177.062 16.2867 177.787 17.5125 178.957C18.0111 179.38 18.4231 179.895 18.7256 180.475C19.6536 181.936 20.0544 183.671 19.8613 185.391C19.6682 187.112 18.8929 188.715 17.6642 189.934C17.2623 190.351 16.8027 190.709 16.2995 190.996Z" fill="url(#paint103_linear_484_47595)"/>
<path d="M0.290745 236.406C-1.16588 237.601 -3.01929 238.217 -4.90869 238.132C-6.79809 238.048 -8.58825 237.27 -9.93064 235.95L-10.4928 235.393C-11.8043 233.806 -12.4278 231.769 -12.2266 229.728C-12.0254 227.687 -11.016 225.808 -9.41954 224.503C-7.94911 223.34 -6.10239 222.744 -4.22244 222.828C-2.34249 222.912 -0.557155 223.669 0.801845 224.959C1.02585 225.145 1.216 225.368 1.36402 225.618C2.5422 227.077 3.14066 228.912 3.04651 230.778C2.95235 232.645 2.17206 234.412 0.852923 235.747C0.714096 236.003 0.522571 236.228 0.290745 236.406Z" fill="url(#paint104_linear_484_47595)"/>
<defs>
<linearGradient id="paint0_linear_484_47595" x1="-274.615" y1="897.298" x2="869.006" y2="895.302" gradientUnits="userSpaceOnUse">
<stop stop-color="#F58523"/>
<stop offset="0.51" stop-color="#BD4E80"/>
<stop offset="0.96" stop-color="#2ABCDA"/>
</linearGradient>
<linearGradient id="paint1_linear_484_47595" x1="-280.021" y1="910.572" x2="870.986" y2="908.694" gradientUnits="userSpaceOnUse">
<stop stop-color="#F58523"/>
<stop offset="0.51" stop-color="#BD4E80"/>
<stop offset="0.96" stop-color="#2ABCDA"/>
</linearGradient>
<linearGradient id="paint2_linear_484_47595" x1="-283.349" y1="916.602" x2="863.083" y2="914.595" gradientUnits="userSpaceOnUse">
<stop stop-color="#F58523"/>
<stop offset="0.51" stop-color="#BD4E80"/>
<stop offset="0.96" stop-color="#2ABCDA"/>
</linearGradient>
<linearGradient id="paint3_linear_484_47595" x1="-283.387" y1="904.314" x2="861.787" y2="902.303" gradientUnits="userSpaceOnUse">
<stop stop-color="#F58523"/>
<stop offset="0.51" stop-color="#BD4E80"/>
<stop offset="0.96" stop-color="#2ABCDA"/>
</linearGradient>
<linearGradient id="paint4_linear_484_47595" x1="-284.879" y1="890.484" x2="861.095" y2="888.475" gradientUnits="userSpaceOnUse">
<stop stop-color="#F58523"/>
<stop offset="0.51" stop-color="#BD4E80"/>
<stop offset="0.96" stop-color="#2ABCDA"/>
</linearGradient>
<linearGradient id="paint5_linear_484_47595" x1="-280.385" y1="100.744" x2="869.513" y2="98.7252" gradientUnits="userSpaceOnUse">
<stop stop-color="#F58523"/>
<stop offset="0.51" stop-color="#BD4E80"/>
<stop offset="0.96" stop-color="#2ABCDA"/>
</linearGradient>
<linearGradient id="paint6_linear_484_47595" x1="-328.058" y1="86.8818" x2="900.725" y2="84.5823" gradientUnits="userSpaceOnUse">
<stop stop-color="#F58523"/>
<stop offset="0.51" stop-color="#BD4E80"/>
<stop offset="0.96" stop-color="#2ABCDA"/>
</linearGradient>
<linearGradient id="paint7_linear_484_47595" x1="-331.003" y1="74.5814" x2="905.677" y2="72.241" gradientUnits="userSpaceOnUse">
<stop stop-color="#F58523"/>
<stop offset="0.51" stop-color="#BD4E80"/>
<stop offset="0.96" stop-color="#2ABCDA"/>
</linearGradient>
<linearGradient id="paint8_linear_484_47595" x1="-279.543" y1="63.8332" x2="867.166" y2="61.8297" gradientUnits="userSpaceOnUse">
<stop stop-color="#F58523"/>
<stop offset="0.51" stop-color="#BD4E80"/>
<stop offset="0.96" stop-color="#2ABCDA"/>
</linearGradient>
<linearGradient id="paint9_linear_484_47595" x1="-276.256" y1="56.1088" x2="863.242" y2="54.1245" gradientUnits="userSpaceOnUse">
<stop stop-color="#F58523"/>
<stop offset="0.51" stop-color="#BD4E80"/>
<stop offset="0.96" stop-color="#2ABCDA"/>
</linearGradient>
<linearGradient id="paint10_linear_484_47595" x1="-326.24" y1="49.2681" x2="911.331" y2="47.0981" gradientUnits="userSpaceOnUse">
<stop stop-color="#F58523"/>
<stop offset="0.51" stop-color="#BD4E80"/>
<stop offset="0.96" stop-color="#2ABCDA"/>
</linearGradient>
<linearGradient id="paint11_linear_484_47595" x1="-279.999" y1="45.32" x2="863.985" y2="43.3211" gradientUnits="userSpaceOnUse">
<stop stop-color="#F58523"/>
<stop offset="0.51" stop-color="#BD4E80"/>
<stop offset="0.96" stop-color="#2ABCDA"/>
</linearGradient>
<linearGradient id="paint12_linear_484_47595" x1="-282.396" y1="42.1827" x2="864.541" y2="40.1808" gradientUnits="userSpaceOnUse">
<stop stop-color="#F58523"/>
<stop offset="0.51" stop-color="#BD4E80"/>
<stop offset="0.96" stop-color="#2ABCDA"/>
</linearGradient>
<linearGradient id="paint13_linear_484_47595" x1="-314.246" y1="41.9709" x2="907.408" y2="39.7299" gradientUnits="userSpaceOnUse">
<stop stop-color="#F58523"/>
<stop offset="0.51" stop-color="#BD4E80"/>
<stop offset="0.96" stop-color="#2ABCDA"/>
</linearGradient>
<linearGradient id="paint14_linear_484_47595" x1="-281.115" y1="43.5825" x2="862.142" y2="41.5935" gradientUnits="userSpaceOnUse">
<stop stop-color="#F58523"/>
<stop offset="0.51" stop-color="#BD4E80"/>
<stop offset="0.96" stop-color="#2ABCDA"/>
</linearGradient>
<linearGradient id="paint15_linear_484_47595" x1="-282.826" y1="47.4422" x2="861.761" y2="45.5902" gradientUnits="userSpaceOnUse">
<stop stop-color="#F58523"/>
<stop offset="0.51" stop-color="#BD4E80"/>
<stop offset="0.96" stop-color="#2ABCDA"/>
</linearGradient>
<linearGradient id="paint16_linear_484_47595" x1="-312.611" y1="52.7109" x2="916.046" y2="50.4079" gradientUnits="userSpaceOnUse">
<stop stop-color="#F58523"/>
<stop offset="0.51" stop-color="#BD4E80"/>
<stop offset="0.96" stop-color="#2ABCDA"/>
</linearGradient>
<linearGradient id="paint17_linear_484_47595" x1="-311.277" y1="60.3202" x2="918.842" y2="58.0153" gradientUnits="userSpaceOnUse">
<stop stop-color="#F58523"/>
<stop offset="0.51" stop-color="#BD4E80"/>
<stop offset="0.96" stop-color="#2ABCDA"/>
</linearGradient>
<linearGradient id="paint18_linear_484_47595" x1="-283.335" y1="70.2249" x2="859.322" y2="68.3765" gradientUnits="userSpaceOnUse">
<stop stop-color="#F58523"/>
<stop offset="0.51" stop-color="#BD4E80"/>
<stop offset="0.96" stop-color="#2ABCDA"/>
</linearGradient>
<linearGradient id="paint19_linear_484_47595" x1="-286.007" y1="81.5047" x2="860.735" y2="79.4958" gradientUnits="userSpaceOnUse">
<stop stop-color="#F58523"/>
<stop offset="0.51" stop-color="#BD4E80"/>
<stop offset="0.96" stop-color="#2ABCDA"/>
</linearGradient>
<linearGradient id="paint20_linear_484_47595" x1="-306.448" y1="95.4232" x2="921.929" y2="93.1183" gradientUnits="userSpaceOnUse">
<stop stop-color="#F58523"/>
<stop offset="0.51" stop-color="#BD4E80"/>
<stop offset="0.96" stop-color="#2ABCDA"/>
</linearGradient>
<linearGradient id="paint21_linear_484_47595" x1="-291.586" y1="33.3585" x2="875.557" y2="31.3261" gradientUnits="userSpaceOnUse">
<stop stop-color="#F58523"/>
<stop offset="0.51" stop-color="#BD4E80"/>
<stop offset="0.96" stop-color="#2ABCDA"/>
</linearGradient>
<linearGradient id="paint22_linear_484_47595" x1="-290.012" y1="19.4929" x2="875.624" y2="17.4571" gradientUnits="userSpaceOnUse">
<stop stop-color="#F58523"/>
<stop offset="0.51" stop-color="#BD4E80"/>
<stop offset="0.96" stop-color="#2ABCDA"/>
</linearGradient>
<linearGradient id="paint23_linear_484_47595" x1="-292.984" y1="7.21355" x2="878.019" y2="5.16349" gradientUnits="userSpaceOnUse">
<stop stop-color="#F58523"/>
<stop offset="0.51" stop-color="#BD4E80"/>
<stop offset="0.96" stop-color="#2ABCDA"/>
</linearGradient>
<linearGradient id="paint24_linear_484_47595" x1="-290.75" y1="-2.06116" x2="874.736" y2="-4.08759" gradientUnits="userSpaceOnUse">
<stop stop-color="#F58523"/>
<stop offset="0.51" stop-color="#BD4E80"/>
<stop offset="0.96" stop-color="#2ABCDA"/>
</linearGradient>
<linearGradient id="paint25_linear_484_47595" x1="-291.096" y1="-9.89147" x2="877.489" y2="-11.9159" gradientUnits="userSpaceOnUse">
<stop stop-color="#F58523"/>
<stop offset="0.51" stop-color="#BD4E80"/>
<stop offset="0.96" stop-color="#2ABCDA"/>
</linearGradient>
<linearGradient id="paint26_linear_484_47595" x1="-291.814" y1="-5.51608" x2="876.951" y2="-7.56236" gradientUnits="userSpaceOnUse">
<stop stop-color="#F58523"/>
<stop offset="0.51" stop-color="#BD4E80"/>
<stop offset="0.96" stop-color="#2ABCDA"/>
</linearGradient>
<linearGradient id="paint27_linear_484_47595" x1="-292.092" y1="3.6354" x2="876.206" y2="1.57903" gradientUnits="userSpaceOnUse">
<stop stop-color="#F58523"/>
<stop offset="0.51" stop-color="#BD4E80"/>
<stop offset="0.96" stop-color="#2ABCDA"/>
</linearGradient>
<linearGradient id="paint28_linear_484_47595" x1="-291.232" y1="18.7431" x2="878.104" y2="16.7068" gradientUnits="userSpaceOnUse">
<stop stop-color="#F58523"/>
<stop offset="0.51" stop-color="#BD4E80"/>
<stop offset="0.96" stop-color="#2ABCDA"/>
</linearGradient>
<linearGradient id="paint29_linear_484_47595" x1="-246.425" y1="836.818" x2="850.454" y2="835.075" gradientUnits="userSpaceOnUse">
<stop stop-color="#F58523"/>
<stop offset="0.51" stop-color="#BD4E80"/>
<stop offset="0.96" stop-color="#2ABCDA"/>
</linearGradient>
<linearGradient id="paint30_linear_484_47595" x1="-306.569" y1="850.599" x2="889.044" y2="848.515" gradientUnits="userSpaceOnUse">
<stop stop-color="#F58523"/>
<stop offset="0.51" stop-color="#BD4E80"/>
<stop offset="0.96" stop-color="#2ABCDA"/>
</linearGradient>
<linearGradient id="paint31_linear_484_47595" x1="-300.946" y1="861.959" x2="885.257" y2="859.711" gradientUnits="userSpaceOnUse">
<stop stop-color="#F58523"/>
<stop offset="0.51" stop-color="#BD4E80"/>
<stop offset="0.96" stop-color="#2ABCDA"/>
</linearGradient>
<linearGradient id="paint32_linear_484_47595" x1="-314.524" y1="871.968" x2="897.807" y2="869.826" gradientUnits="userSpaceOnUse">
<stop stop-color="#F58523"/>
<stop offset="0.51" stop-color="#BD4E80"/>
<stop offset="0.96" stop-color="#2ABCDA"/>
</linearGradient>
<linearGradient id="paint33_linear_484_47595" x1="-252.192" y1="881.228" x2="844.33" y2="879.476" gradientUnits="userSpaceOnUse">
<stop stop-color="#F58523"/>
<stop offset="0.51" stop-color="#BD4E80"/>
<stop offset="0.96" stop-color="#2ABCDA"/>
</linearGradient>
<linearGradient id="paint34_linear_484_47595" x1="-253.475" y1="887.222" x2="842.144" y2="885.469" gradientUnits="userSpaceOnUse">
<stop stop-color="#F58523"/>
<stop offset="0.51" stop-color="#BD4E80"/>
<stop offset="0.96" stop-color="#2ABCDA"/>
</linearGradient>
<linearGradient id="paint35_linear_484_47595" x1="-254.364" y1="892.358" x2="840.075" y2="890.464" gradientUnits="userSpaceOnUse">
<stop stop-color="#F58523"/>
<stop offset="0.51" stop-color="#BD4E80"/>
<stop offset="0.96" stop-color="#2ABCDA"/>
</linearGradient>
<linearGradient id="paint36_linear_484_47595" x1="-303.041" y1="895.475" x2="893.235" y2="893.197" gradientUnits="userSpaceOnUse">
<stop stop-color="#F58523"/>
<stop offset="0.51" stop-color="#BD4E80"/>
<stop offset="0.96" stop-color="#2ABCDA"/>
</linearGradient>
<linearGradient id="paint37_linear_484_47595" x1="-257.796" y1="896.272" x2="836.503" y2="894.521" gradientUnits="userSpaceOnUse">
<stop stop-color="#F58523"/>
<stop offset="0.51" stop-color="#BD4E80"/>
<stop offset="0.96" stop-color="#2ABCDA"/>
</linearGradient>
<linearGradient id="paint38_linear_484_47595" x1="-303.993" y1="896.218" x2="897.488" y2="894.116" gradientUnits="userSpaceOnUse">
<stop stop-color="#F58523"/>
<stop offset="0.51" stop-color="#BD4E80"/>
<stop offset="0.96" stop-color="#2ABCDA"/>
</linearGradient>
<linearGradient id="paint39_linear_484_47595" x1="-297.652" y1="894.634" x2="891.256" y2="892.564" gradientUnits="userSpaceOnUse">
<stop stop-color="#F58523"/>
<stop offset="0.51" stop-color="#BD4E80"/>
<stop offset="0.96" stop-color="#2ABCDA"/>
</linearGradient>
<linearGradient id="paint40_linear_484_47595" x1="-260.044" y1="889.954" x2="827.451" y2="888.23" gradientUnits="userSpaceOnUse">
<stop stop-color="#F58523"/>
<stop offset="0.51" stop-color="#BD4E80"/>
<stop offset="0.96" stop-color="#2ABCDA"/>
</linearGradient>
<linearGradient id="paint41_linear_484_47595" x1="-299.347" y1="884.516" x2="894.547" y2="882.246" gradientUnits="userSpaceOnUse">
<stop stop-color="#F58523"/>
<stop offset="0.51" stop-color="#BD4E80"/>
<stop offset="0.96" stop-color="#2ABCDA"/>
</linearGradient>
<linearGradient id="paint42_linear_484_47595" x1="-266.315" y1="876.816" x2="828.983" y2="874.902" gradientUnits="userSpaceOnUse">
<stop stop-color="#F58523"/>
<stop offset="0.51" stop-color="#BD4E80"/>
<stop offset="0.96" stop-color="#2ABCDA"/>
</linearGradient>
<linearGradient id="paint43_linear_484_47595" x1="-298.875" y1="868.416" x2="898.14" y2="866.322" gradientUnits="userSpaceOnUse">
<stop stop-color="#F58523"/>
<stop offset="0.51" stop-color="#BD4E80"/>
<stop offset="0.96" stop-color="#2ABCDA"/>
</linearGradient>
<linearGradient id="paint44_linear_484_47595" x1="-299.954" y1="857.524" x2="902.89" y2="855.433" gradientUnits="userSpaceOnUse">
<stop stop-color="#F58523"/>
<stop offset="0.51" stop-color="#BD4E80"/>
<stop offset="0.96" stop-color="#2ABCDA"/>
</linearGradient>
<linearGradient id="paint45_linear_484_47595" x1="-271.284" y1="844.52" x2="824.792" y2="842.61" gradientUnits="userSpaceOnUse">
<stop stop-color="#F58523"/>
<stop offset="0.51" stop-color="#BD4E80"/>
<stop offset="0.96" stop-color="#2ABCDA"/>
</linearGradient>
<linearGradient id="paint46_linear_484_47595" x1="-295.729" y1="830.683" x2="897.912" y2="828.414" gradientUnits="userSpaceOnUse">
<stop stop-color="#F58523"/>
<stop offset="0.51" stop-color="#BD4E80"/>
<stop offset="0.96" stop-color="#2ABCDA"/>
</linearGradient>
<linearGradient id="paint47_linear_484_47595" x1="-307.014" y1="160.451" x2="886.96" y2="158.177" gradientUnits="userSpaceOnUse">
<stop stop-color="#F58523"/>
<stop offset="0.51" stop-color="#BD4E80"/>
<stop offset="0.96" stop-color="#2ABCDA"/>
</linearGradient>
<linearGradient id="paint48_linear_484_47595" x1="-250.66" y1="146.685" x2="849.258" y2="144.76" gradientUnits="userSpaceOnUse">
<stop stop-color="#F58523"/>
<stop offset="0.51" stop-color="#BD4E80"/>
<stop offset="0.96" stop-color="#2ABCDA"/>
</linearGradient>
<linearGradient id="paint49_linear_484_47595" x1="-311.404" y1="134.16" x2="890.517" y2="131.877" gradientUnits="userSpaceOnUse">
<stop stop-color="#F58523"/>
<stop offset="0.51" stop-color="#BD4E80"/>
<stop offset="0.96" stop-color="#2ABCDA"/>
</linearGradient>
<linearGradient id="paint50_linear_484_47595" x1="-307.677" y1="123.431" x2="888.845" y2="121.156" gradientUnits="userSpaceOnUse">
<stop stop-color="#F58523"/>
<stop offset="0.51" stop-color="#BD4E80"/>
<stop offset="0.96" stop-color="#2ABCDA"/>
</linearGradient>
<linearGradient id="paint51_linear_484_47595" x1="-305.231" y1="114.323" x2="889.066" y2="112.057" gradientUnits="userSpaceOnUse">
<stop stop-color="#F58523"/>
<stop offset="0.51" stop-color="#BD4E80"/>
<stop offset="0.96" stop-color="#2ABCDA"/>
</linearGradient>
<linearGradient id="paint52_linear_484_47595" x1="-305.686" y1="107.428" x2="890.054" y2="105.337" gradientUnits="userSpaceOnUse">
<stop stop-color="#F58523"/>
<stop offset="0.51" stop-color="#BD4E80"/>
<stop offset="0.96" stop-color="#2ABCDA"/>
</linearGradient>
<linearGradient id="paint53_linear_484_47595" x1="-304.61" y1="101.255" x2="890.489" y2="99.1543" gradientUnits="userSpaceOnUse">
<stop stop-color="#F58523"/>
<stop offset="0.51" stop-color="#BD4E80"/>
<stop offset="0.96" stop-color="#2ABCDA"/>
</linearGradient>
<linearGradient id="paint54_linear_484_47595" x1="-299.903" y1="97.9062" x2="886.756" y2="95.8433" gradientUnits="userSpaceOnUse">
<stop stop-color="#F58523"/>
<stop offset="0.51" stop-color="#BD4E80"/>
<stop offset="0.96" stop-color="#2ABCDA"/>
</linearGradient>
<linearGradient id="paint55_linear_484_47595" x1="-302.75" y1="95.0506" x2="890.061" y2="92.9796" gradientUnits="userSpaceOnUse">
<stop stop-color="#F58523"/>
<stop offset="0.51" stop-color="#BD4E80"/>
<stop offset="0.96" stop-color="#2ABCDA"/>
</linearGradient>
<linearGradient id="paint56_linear_484_47595" x1="-300.435" y1="95.003" x2="890.004" y2="92.9414" gradientUnits="userSpaceOnUse">
<stop stop-color="#F58523"/>
<stop offset="0.51" stop-color="#BD4E80"/>
<stop offset="0.96" stop-color="#2ABCDA"/>
</linearGradient>
<linearGradient id="paint57_linear_484_47595" x1="-301.536" y1="96.4772" x2="890.854" y2="94.4015" gradientUnits="userSpaceOnUse">
<stop stop-color="#F58523"/>
<stop offset="0.51" stop-color="#BD4E80"/>
<stop offset="0.96" stop-color="#2ABCDA"/>
</linearGradient>
<linearGradient id="paint58_linear_484_47595" x1="-301.393" y1="99.5406" x2="893.547" y2="97.4431" gradientUnits="userSpaceOnUse">
<stop stop-color="#F58523"/>
<stop offset="0.51" stop-color="#BD4E80"/>
<stop offset="0.96" stop-color="#2ABCDA"/>
</linearGradient>
<linearGradient id="paint59_linear_484_47595" x1="-301.043" y1="104.046" x2="895.548" y2="101.958" gradientUnits="userSpaceOnUse">
<stop stop-color="#F58523"/>
<stop offset="0.51" stop-color="#BD4E80"/>
<stop offset="0.96" stop-color="#2ABCDA"/>
</linearGradient>
<linearGradient id="paint60_linear_484_47595" x1="-300.836" y1="111.653" x2="896.69" y2="109.557" gradientUnits="userSpaceOnUse">
<stop stop-color="#F58523"/>
<stop offset="0.51" stop-color="#BD4E80"/>
<stop offset="0.96" stop-color="#2ABCDA"/>
</linearGradient>
<linearGradient id="paint61_linear_484_47595" x1="-305.035" y1="119.14" x2="906.838" y2="117.007" gradientUnits="userSpaceOnUse">
<stop stop-color="#F58523"/>
<stop offset="0.51" stop-color="#BD4E80"/>
<stop offset="0.96" stop-color="#2ABCDA"/>
</linearGradient>
<linearGradient id="paint62_linear_484_47595" x1="-299.053" y1="129.915" x2="896.416" y2="127.833" gradientUnits="userSpaceOnUse">
<stop stop-color="#F58523"/>
<stop offset="0.51" stop-color="#BD4E80"/>
<stop offset="0.96" stop-color="#2ABCDA"/>
</linearGradient>
<linearGradient id="paint63_linear_484_47595" x1="-298.758" y1="141.354" x2="895.649" y2="139.083" gradientUnits="userSpaceOnUse">
<stop stop-color="#F58523"/>
<stop offset="0.51" stop-color="#BD4E80"/>
<stop offset="0.96" stop-color="#2ABCDA"/>
</linearGradient>
<linearGradient id="paint64_linear_484_47595" x1="-303.148" y1="760.062" x2="885.165" y2="757.98" gradientUnits="userSpaceOnUse">
<stop stop-color="#F58523"/>
<stop offset="0.51" stop-color="#BD4E80"/>
<stop offset="0.96" stop-color="#2ABCDA"/>
</linearGradient>
<linearGradient id="paint65_linear_484_47595" x1="-287.729" y1="773.99" x2="874.951" y2="771.965" gradientUnits="userSpaceOnUse">
<stop stop-color="#F58523"/>
<stop offset="0.51" stop-color="#BD4E80"/>
<stop offset="0.96" stop-color="#2ABCDA"/>
</linearGradient>
<linearGradient id="paint66_linear_484_47595" x1="-289.86" y1="786.258" x2="877.659" y2="784.223" gradientUnits="userSpaceOnUse">
<stop stop-color="#F58523"/>
<stop offset="0.51" stop-color="#BD4E80"/>
<stop offset="0.96" stop-color="#2ABCDA"/>
</linearGradient>
<linearGradient id="paint67_linear_484_47595" x1="-290.119" y1="798.407" x2="877.703" y2="796.371" gradientUnits="userSpaceOnUse">
<stop stop-color="#F58523"/>
<stop offset="0.51" stop-color="#BD4E80"/>
<stop offset="0.96" stop-color="#2ABCDA"/>
</linearGradient>
<linearGradient id="paint68_linear_484_47595" x1="-289.975" y1="807.601" x2="878.778" y2="805.566" gradientUnits="userSpaceOnUse">
<stop stop-color="#F58523"/>
<stop offset="0.51" stop-color="#BD4E80"/>
<stop offset="0.96" stop-color="#2ABCDA"/>
</linearGradient>
<linearGradient id="paint69_linear_484_47595" x1="-287.141" y1="816.881" x2="875.894" y2="814.84" gradientUnits="userSpaceOnUse">
<stop stop-color="#F58523"/>
<stop offset="0.51" stop-color="#BD4E80"/>
<stop offset="0.96" stop-color="#2ABCDA"/>
</linearGradient>
<linearGradient id="paint70_linear_484_47595" x1="-236.951" y1="824.375" x2="827.491" y2="822.679" gradientUnits="userSpaceOnUse">
<stop stop-color="#F58523"/>
<stop offset="0.51" stop-color="#BD4E80"/>
<stop offset="0.96" stop-color="#2ABCDA"/>
</linearGradient>
<linearGradient id="paint71_linear_484_47595" x1="-288.483" y1="829.624" x2="875.691" y2="827.376" gradientUnits="userSpaceOnUse">
<stop stop-color="#F58523"/>
<stop offset="0.51" stop-color="#BD4E80"/>
<stop offset="0.96" stop-color="#2ABCDA"/>
</linearGradient>
<linearGradient id="paint72_linear_484_47595" x1="-291.741" y1="833.522" x2="881.278" y2="831.468" gradientUnits="userSpaceOnUse">
<stop stop-color="#F58523"/>
<stop offset="0.51" stop-color="#BD4E80"/>
<stop offset="0.96" stop-color="#2ABCDA"/>
</linearGradient>
<linearGradient id="paint73_linear_484_47595" x1="-288.097" y1="836.558" x2="876.847" y2="834.529" gradientUnits="userSpaceOnUse">
<stop stop-color="#F58523"/>
<stop offset="0.51" stop-color="#BD4E80"/>
<stop offset="0.96" stop-color="#2ABCDA"/>
</linearGradient>
<linearGradient id="paint74_linear_484_47595" x1="-288.22" y1="838.016" x2="876.217" y2="835.99" gradientUnits="userSpaceOnUse">
<stop stop-color="#F58523"/>
<stop offset="0.51" stop-color="#BD4E80"/>
<stop offset="0.96" stop-color="#2ABCDA"/>
</linearGradient>
<linearGradient id="paint75_linear_484_47595" x1="-290.957" y1="837.993" x2="879.856" y2="835.95" gradientUnits="userSpaceOnUse">
<stop stop-color="#F58523"/>
<stop offset="0.51" stop-color="#BD4E80"/>
<stop offset="0.96" stop-color="#2ABCDA"/>
</linearGradient>
<linearGradient id="paint76_linear_484_47595" x1="-294.114" y1="834.917" x2="884.176" y2="832.838" gradientUnits="userSpaceOnUse">
<stop stop-color="#F58523"/>
<stop offset="0.51" stop-color="#BD4E80"/>
<stop offset="0.96" stop-color="#2ABCDA"/>
</linearGradient>
<linearGradient id="paint77_linear_484_47595" x1="-290.427" y1="831.835" x2="877.638" y2="829.793" gradientUnits="userSpaceOnUse">
<stop stop-color="#F58523"/>
<stop offset="0.51" stop-color="#BD4E80"/>
<stop offset="0.96" stop-color="#2ABCDA"/>
</linearGradient>
<linearGradient id="paint78_linear_484_47595" x1="-290.078" y1="827.183" x2="879.17" y2="825.141" gradientUnits="userSpaceOnUse">
<stop stop-color="#F58523"/>
<stop offset="0.51" stop-color="#BD4E80"/>
<stop offset="0.96" stop-color="#2ABCDA"/>
</linearGradient>
<linearGradient id="paint79_linear_484_47595" x1="-291.771" y1="820.98" x2="879.661" y2="818.94" gradientUnits="userSpaceOnUse">
<stop stop-color="#F58523"/>
<stop offset="0.51" stop-color="#BD4E80"/>
<stop offset="0.96" stop-color="#2ABCDA"/>
</linearGradient>
<linearGradient id="paint80_linear_484_47595" x1="-288.756" y1="813.267" x2="873.158" y2="811.236" gradientUnits="userSpaceOnUse">
<stop stop-color="#F58523"/>
<stop offset="0.51" stop-color="#BD4E80"/>
<stop offset="0.96" stop-color="#2ABCDA"/>
</linearGradient>
<linearGradient id="paint81_linear_484_47595" x1="-291.503" y1="804.07" x2="882.554" y2="802.021" gradientUnits="userSpaceOnUse">
<stop stop-color="#F58523"/>
<stop offset="0.51" stop-color="#BD4E80"/>
<stop offset="0.96" stop-color="#2ABCDA"/>
</linearGradient>
<linearGradient id="paint82_linear_484_47595" x1="-288.506" y1="793.361" x2="876.279" y2="791.322" gradientUnits="userSpaceOnUse">
<stop stop-color="#F58523"/>
<stop offset="0.51" stop-color="#BD4E80"/>
<stop offset="0.96" stop-color="#2ABCDA"/>
</linearGradient>
<linearGradient id="paint83_linear_484_47595" x1="-290.244" y1="780.999" x2="879.331" y2="778.95" gradientUnits="userSpaceOnUse">
<stop stop-color="#F58523"/>
<stop offset="0.51" stop-color="#BD4E80"/>
<stop offset="0.96" stop-color="#2ABCDA"/>
</linearGradient>
<linearGradient id="paint84_linear_484_47595" x1="-288.203" y1="768.102" x2="874.245" y2="766.245" gradientUnits="userSpaceOnUse">
<stop stop-color="#F58523"/>
<stop offset="0.51" stop-color="#BD4E80"/>
<stop offset="0.96" stop-color="#2ABCDA"/>
</linearGradient>
<linearGradient id="paint85_linear_484_47595" x1="-287.37" y1="222.534" x2="874.81" y2="220.504" gradientUnits="userSpaceOnUse">
<stop stop-color="#F58523"/>
<stop offset="0.51" stop-color="#BD4E80"/>
<stop offset="0.96" stop-color="#2ABCDA"/>
</linearGradient>
<linearGradient id="paint86_linear_484_47595" x1="-289.295" y1="210.229" x2="876.495" y2="208.192" gradientUnits="userSpaceOnUse">
<stop stop-color="#F58523"/>
<stop offset="0.51" stop-color="#BD4E80"/>
<stop offset="0.96" stop-color="#2ABCDA"/>
</linearGradient>
<linearGradient id="paint87_linear_484_47595" x1="-290.692" y1="197.947" x2="876.77" y2="195.916" gradientUnits="userSpaceOnUse">
<stop stop-color="#F58523"/>
<stop offset="0.51" stop-color="#BD4E80"/>
<stop offset="0.96" stop-color="#2ABCDA"/>
</linearGradient>
<linearGradient id="paint88_linear_484_47595" x1="-294.258" y1="187.204" x2="880.237" y2="185.152" gradientUnits="userSpaceOnUse">
<stop stop-color="#F58523"/>
<stop offset="0.51" stop-color="#BD4E80"/>
<stop offset="0.96" stop-color="#2ABCDA"/>
</linearGradient>
<linearGradient id="paint89_linear_484_47595" x1="-285.127" y1="177.94" x2="871.4" y2="175.926" gradientUnits="userSpaceOnUse">
<stop stop-color="#F58523"/>
<stop offset="0.51" stop-color="#BD4E80"/>
<stop offset="0.96" stop-color="#2ABCDA"/>
</linearGradient>
<linearGradient id="paint90_linear_484_47595" x1="-289.708" y1="170.345" x2="875.42" y2="168.304" gradientUnits="userSpaceOnUse">
<stop stop-color="#F58523"/>
<stop offset="0.51" stop-color="#BD4E80"/>
<stop offset="0.96" stop-color="#2ABCDA"/>
</linearGradient>
<linearGradient id="paint91_linear_484_47595" x1="-289.001" y1="163.956" x2="875.599" y2="161.955" gradientUnits="userSpaceOnUse">
<stop stop-color="#F58523"/>
<stop offset="0.51" stop-color="#BD4E80"/>
<stop offset="0.96" stop-color="#2ABCDA"/>
</linearGradient>
<linearGradient id="paint92_linear_484_47595" x1="-292.623" y1="159.286" x2="877.945" y2="157.246" gradientUnits="userSpaceOnUse">
<stop stop-color="#F58523"/>
<stop offset="0.51" stop-color="#BD4E80"/>
<stop offset="0.96" stop-color="#2ABCDA"/>
</linearGradient>
<linearGradient id="paint93_linear_484_47595" x1="-343.648" y1="156.343" x2="936.985" y2="153.895" gradientUnits="userSpaceOnUse">
<stop stop-color="#F58523"/>
<stop offset="0.51" stop-color="#BD4E80"/>
<stop offset="0.96" stop-color="#2ABCDA"/>
</linearGradient>
<linearGradient id="paint94_linear_484_47595" x1="-296.326" y1="154.705" x2="881.557" y2="152.643" gradientUnits="userSpaceOnUse">
<stop stop-color="#F58523"/>
<stop offset="0.51" stop-color="#BD4E80"/>
<stop offset="0.96" stop-color="#2ABCDA"/>
</linearGradient>
<linearGradient id="paint95_linear_484_47595" x1="-289.016" y1="153.217" x2="875.373" y2="151.191" gradientUnits="userSpaceOnUse">
<stop stop-color="#F58523"/>
<stop offset="0.51" stop-color="#BD4E80"/>
<stop offset="0.96" stop-color="#2ABCDA"/>
</linearGradient>
<linearGradient id="paint96_linear_484_47595" x1="-292.395" y1="154.695" x2="879.589" y2="152.635" gradientUnits="userSpaceOnUse">
<stop stop-color="#F58523"/>
<stop offset="0.51" stop-color="#BD4E80"/>
<stop offset="0.96" stop-color="#2ABCDA"/>
</linearGradient>
<linearGradient id="paint97_linear_484_47595" x1="-291.559" y1="157.683" x2="877.784" y2="155.638" gradientUnits="userSpaceOnUse">
<stop stop-color="#F58523"/>
<stop offset="0.51" stop-color="#BD4E80"/>
<stop offset="0.96" stop-color="#2ABCDA"/>
</linearGradient>
<linearGradient id="paint98_linear_484_47595" x1="-290.806" y1="162.287" x2="875.241" y2="160.257" gradientUnits="userSpaceOnUse">
<stop stop-color="#F58523"/>
<stop offset="0.51" stop-color="#BD4E80"/>
<stop offset="0.96" stop-color="#2ABCDA"/>
</linearGradient>
<linearGradient id="paint99_linear_484_47595" x1="-295.268" y1="168.35" x2="885.698" y2="166.267" gradientUnits="userSpaceOnUse">
<stop stop-color="#F58523"/>
<stop offset="0.51" stop-color="#BD4E80"/>
<stop offset="0.96" stop-color="#2ABCDA"/>
</linearGradient>
<linearGradient id="paint100_linear_484_47595" x1="-290.026" y1="174.471" x2="876.277" y2="172.443" gradientUnits="userSpaceOnUse">
<stop stop-color="#F58523"/>
<stop offset="0.51" stop-color="#BD4E80"/>
<stop offset="0.96" stop-color="#2ABCDA"/>
</linearGradient>
<linearGradient id="paint101_linear_484_47595" x1="-291.947" y1="183.585" x2="879.506" y2="181.551" gradientUnits="userSpaceOnUse">
<stop stop-color="#F58523"/>
<stop offset="0.51" stop-color="#BD4E80"/>
<stop offset="0.96" stop-color="#2ABCDA"/>
</linearGradient>
<linearGradient id="paint102_linear_484_47595" x1="-291.985" y1="194.303" x2="876.977" y2="192.262" gradientUnits="userSpaceOnUse">
<stop stop-color="#F58523"/>
<stop offset="0.51" stop-color="#BD4E80"/>
<stop offset="0.96" stop-color="#2ABCDA"/>
</linearGradient>
<linearGradient id="paint103_linear_484_47595" x1="-292.729" y1="184.839" x2="879.113" y2="182.795" gradientUnits="userSpaceOnUse">
<stop stop-color="#F58523"/>
<stop offset="0.51" stop-color="#BD4E80"/>
<stop offset="0.96" stop-color="#2ABCDA"/>
</linearGradient>
<linearGradient id="paint104_linear_484_47595" x1="-295.644" y1="230.95" x2="889.264" y2="228.863" gradientUnits="userSpaceOnUse">
<stop stop-color="#F58523"/>
<stop offset="0.51" stop-color="#BD4E80"/>
<stop offset="0.96" stop-color="#2ABCDA"/>
</linearGradient>
</defs>
</svg>
