<svg width="7" height="13" viewBox="0 0 7 13" fill="none" xmlns="http://www.w3.org/2000/svg">
<path d="M2.01229 7.64777C1.96693 7.64777 0.968934 7.64777 0.515299 7.64777C0.27336 7.64777 0.197754 7.55705 0.197754 7.33023C0.197754 6.72538 0.197754 6.10541 0.197754 5.50057C0.197754 5.25863 0.288481 5.18302 0.515299 5.18302H2.01229C2.01229 5.13766 2.01229 4.26063 2.01229 3.85236C2.01229 3.24751 2.11814 2.67291 2.42057 2.14367C2.73811 1.5993 3.19175 1.2364 3.76635 1.0247C4.14438 0.88861 4.52241 0.828125 4.93068 0.828125H6.41256C6.62425 0.828125 6.71498 0.918852 6.71498 1.13055V2.85436C6.71498 3.06606 6.62425 3.15679 6.41256 3.15679C6.00428 3.15679 5.59601 3.15679 5.18774 3.17191C4.77947 3.17191 4.56777 3.36848 4.56777 3.79188C4.55265 4.24551 4.56777 4.68402 4.56777 5.15278H6.32183C6.56377 5.15278 6.65449 5.24351 6.65449 5.48545V7.31511C6.65449 7.55705 6.57889 7.63265 6.32183 7.63265C5.77747 7.63265 4.61314 7.63265 4.56777 7.63265V12.5622C4.56777 12.8192 4.49217 12.9099 4.21999 12.9099C3.5849 12.9099 2.96493 12.9099 2.32984 12.9099C2.10302 12.9099 2.01229 12.8192 2.01229 12.5924C2.01229 11.0047 2.01229 7.69314 2.01229 7.64777Z" fill="black"/>
</svg>
