<svg width="11" height="8" viewBox="0 0 11 8" fill="none" xmlns="http://www.w3.org/2000/svg">
<path d="M6.2334 5.20386C5.96766 5.38102 5.65898 5.47467 5.34073 5.47467C5.02249 5.47467 4.71382 5.38102 4.44807 5.20386L0.0711193 2.2858C0.0468357 2.26961 0.0231779 2.25273 0 2.23537V7.01693C0 7.56515 0.444887 8.00023 0.983298 8.00023H9.69813C10.2463 8.00023 10.6814 7.55534 10.6814 7.01693V2.23535C10.6582 2.25275 10.6345 2.26967 10.6102 2.28588L6.2334 5.20386Z" fill="#F9F9FB"/>
<path d="M0.418287 1.76478L4.79524 4.68286C4.96093 4.79332 5.15082 4.84854 5.3407 4.84854C5.53061 4.84854 5.72052 4.7933 5.88621 4.68286L10.2632 1.76478C10.5251 1.59026 10.6815 1.29819 10.6815 0.982965C10.6815 0.440944 10.2405 0 9.69849 0H0.982965C0.440965 2.08622e-05 0 0.440964 0 0.983486C0 1.29819 0.156383 1.59026 0.418287 1.76478Z" fill="#F9F9FB"/>
</svg>
