<svg width="44" height="44" viewBox="0 0 44 44" fill="none" xmlns="http://www.w3.org/2000/svg">
<path d="M0.280335 42.9189C0.565737 43.3214 1.03047 43.5619 1.52371 43.5619H12.0764C13.0846 43.5619 13.9989 42.9267 14.3519 41.9802L17.0352 34.76H26.9844L29.6384 41.9718C29.9867 42.9228 30.9025 43.562 31.917 43.562H42.4772C42.9708 43.562 43.4357 43.3218 43.7208 42.9194C44.006 42.5171 44.0787 41.9989 43.9153 41.5336L30.0683 2.05908C29.7265 1.08906 28.8062 0.4375 27.7784 0.4375C24.8883 0.4375 19.0742 0.4375 16.2225 0.4375C15.1946 0.4375 14.2743 1.0893 13.9323 2.06043L0.0857658 41.5333C-0.0775841 41.9985 -0.00482023 42.5166 0.280335 42.9189ZM15.6715 2.67179C15.7538 2.43814 15.9752 2.28105 16.2224 2.28105H21.7977C21.9923 2.28954 22.173 2.36611 22.3482 2.67056L25.8225 12.5748C25.991 13.0551 26.5171 13.3081 26.9976 13.1396C27.478 12.9711 27.7309 12.445 27.5623 11.9645L24.1654 2.28105H27.7783C28.0255 2.28105 28.2468 2.43801 28.3288 2.67056L42.026 41.7182H37.9851C37.9719 41.6561 28.9917 16.0396 28.9917 16.0396C28.8232 15.5591 28.2969 15.306 27.8166 15.4748C27.3362 15.6433 27.0834 16.1694 27.2519 16.6498L36.0454 41.7182H31.9167C31.6728 41.7182 31.4528 41.5653 31.3689 41.3364L28.4923 33.5198C28.3589 33.1573 28.0134 32.9163 27.6271 32.9163H10.4138C10.0286 32.9163 9.68395 33.1559 9.54973 33.5171L8.79518 35.5476C8.61782 36.0249 8.86093 36.5554 9.33808 36.7329C9.81522 36.9104 10.346 36.6671 10.5233 36.1899L11.0547 34.7601H15.0684L12.6241 41.3372C12.5391 41.5652 12.3189 41.7184 12.0764 41.7184H8.46872L9.01519 40.248C9.19255 39.7709 8.94943 39.2403 8.47229 39.0628C7.99527 38.8854 7.46441 39.1286 7.28705 39.6058L6.64336 41.3377C6.60354 41.4448 6.53397 41.537 6.44301 41.604C6.341 41.6787 6.22091 41.7184 6.09591 41.7184H1.97467L15.6715 2.67179Z" fill="white"/>
<path d="M12.4208 28.6126H25.6439C25.9428 28.6126 26.2231 28.4676 26.3959 28.2239C26.5687 27.9802 26.6127 27.6677 26.5138 27.3857L19.8813 8.47517C19.7516 8.1057 19.4028 7.8584 19.0113 7.8584C19.0111 7.8584 19.0107 7.8584 19.0105 7.8584C18.6186 7.85877 18.2698 8.1068 18.1409 8.47689L11.5503 27.3874C11.4521 27.6692 11.4965 27.9813 11.6693 28.2246C11.8423 28.468 12.1223 28.6126 12.4208 28.6126ZM19.6988 26.7689L22.0136 20.1256L24.3436 26.7689H19.6988ZM19.014 11.5734L21.0341 17.3331L17.7463 26.7689H13.7183L19.014 11.5734Z" fill="white"/>
</svg>
