<svg width="13" height="13" viewBox="0 0 13 13" fill="none" xmlns="http://www.w3.org/2000/svg">
<path fill-rule="evenodd" clip-rule="evenodd" d="M6.99935 6.33335L11.666 1.66669L6.99935 6.33335Z" fill="white"/>
<path d="M4.99948 3.33335C5.55176 3.33335 5.99948 2.88564 5.99948 2.33335C5.99948 1.78107 5.55176 1.33335 4.99948 1.33335V3.33335ZM11.9993 8.33335C11.9993 7.78107 11.5516 7.33335 10.9993 7.33335C10.4471 7.33335 9.99935 7.78107 9.99935 8.33335H11.9993ZM10.2712 11.5213L9.81722 10.6303L10.2712 11.5213ZM10.8542 10.9387L9.96316 10.4847L10.8542 10.9387ZM1.81134 10.9387L0.920334 11.3927L1.81134 10.9387ZM2.39388 11.5213L2.84787 10.6303L2.39388 11.5213ZM2.39388 2.47868L2.84787 3.36968L2.39388 2.47868ZM1.81134 3.06138L2.70235 3.51537L1.81134 3.06138ZM10.666 5.00002C10.666 5.55231 11.1137 6.00002 11.666 6.00002C12.2183 6.00002 12.666 5.55231 12.666 5.00002H10.666ZM11.666 1.66669H12.666C12.666 1.1144 12.2183 0.666687 11.666 0.666687V1.66669ZM8.33268 0.666687C7.7804 0.666687 7.33268 1.1144 7.33268 1.66669C7.33268 2.21897 7.7804 2.66669 8.33268 2.66669V0.666687ZM6.29224 5.62625C5.90172 6.01677 5.90172 6.64994 6.29224 7.04046C6.68277 7.43098 7.31593 7.43098 7.70646 7.04046L6.29224 5.62625ZM4.99948 1.33335H3.79948V3.33335H4.99948V1.33335ZM0.666016 4.46665V9.53332H2.66602V4.46665H0.666016ZM3.79948 12.6667H8.86615V10.6667H3.79948V12.6667ZM11.9993 9.53335V8.33335H9.99935V9.53335H11.9993ZM8.86615 12.6667C9.22302 12.6667 9.55076 12.6675 9.82323 12.6452C10.1074 12.622 10.4182 12.5688 10.7252 12.4123L9.81722 10.6303C9.839 10.6192 9.82061 10.6387 9.66027 10.6518C9.48819 10.6659 9.25601 10.6667 8.86615 10.6667V12.6667ZM9.99935 9.53335C9.99935 9.92332 9.99861 10.1556 9.98456 10.3278C9.97147 10.4884 9.95196 10.5067 9.96316 10.4847L11.7452 11.3927C11.9017 11.0855 11.9548 10.7745 11.9779 10.4904C12.0002 10.2179 11.9993 9.89012 11.9993 9.53335H9.99935ZM10.7252 12.4123C11.1637 12.1889 11.5212 11.8323 11.7452 11.3927L9.96316 10.4847C9.93147 10.5469 9.88045 10.5981 9.81722 10.6303L10.7252 12.4123ZM0.666016 9.53332C0.666016 9.89019 0.665238 10.218 0.687502 10.4905C0.710718 10.7747 0.763864 11.0856 0.920334 11.3927L2.70235 10.4847C2.71349 10.5066 2.69398 10.4882 2.68086 10.3277C2.66679 10.1555 2.66602 9.92319 2.66602 9.53332H0.666016ZM3.79948 10.6667C3.40963 10.6667 3.17728 10.6659 3.00504 10.6518C2.8444 10.6387 2.82597 10.6192 2.84787 10.6303L1.93989 12.4123C2.24701 12.5688 2.55801 12.622 2.84218 12.6452C3.11475 12.6675 3.44259 12.6667 3.79948 12.6667V10.6667ZM0.920334 11.3927C1.14396 11.8316 1.50069 12.1886 1.93989 12.4123L2.84787 10.6303C2.7853 10.5985 2.73438 10.5476 2.70235 10.4847L0.920334 11.3927ZM3.79948 1.33335C3.4426 1.33335 3.11476 1.33258 2.8422 1.35484C2.55804 1.37805 2.24702 1.43118 1.93989 1.58767L2.84787 3.36968C2.82595 3.38085 2.84437 3.36132 3.00502 3.3482C3.17727 3.33413 3.40962 3.33335 3.79948 3.33335V1.33335ZM2.66602 4.46665C2.66602 4.07678 2.66679 3.84454 2.68086 3.67238C2.69397 3.51191 2.71348 3.49352 2.70235 3.51537L0.920334 2.60739C0.763876 2.91446 0.710722 3.22533 0.687503 3.50951C0.665238 3.78201 0.666016 4.10979 0.666016 4.46665H2.66602ZM1.93989 1.58767C1.50059 1.81151 1.14391 2.1686 0.920334 2.60739L2.70235 3.51537C2.73444 3.45239 2.78541 3.40151 2.84787 3.36968L1.93989 1.58767ZM12.666 5.00002V1.66669H10.666V5.00002H12.666ZM11.666 0.666687H8.33268V2.66669H11.666V0.666687ZM7.70646 7.04046L12.3731 2.37379L10.9589 0.95958L6.29224 5.62625L7.70646 7.04046Z" fill="white"/>
</svg>
