<svg width="13" height="13" viewBox="0 0 13 13" fill="none" xmlns="http://www.w3.org/2000/svg">
<path d="M12.111 3.8052C12.1019 3.3158 12.0097 2.83152 11.8382 2.37307C11.686 1.98064 11.4535 1.62431 11.1557 1.32686C10.8579 1.0294 10.5013 0.797386 10.1087 0.645643C9.65021 0.474346 9.16596 0.382107 8.67659 0.372857C8.04372 0.340804 7.84323 0.333984 6.23992 0.333984C4.63662 0.333984 4.43612 0.340804 3.80666 0.368765C3.31727 0.377817 2.83298 0.470062 2.37453 0.641552C1.97967 0.789487 1.62209 1.02229 1.32703 1.32352C1.02678 1.61832 0.794097 1.97479 0.645062 2.36829C0.473777 2.8268 0.381539 3.31105 0.372275 3.80042C0.342269 4.43534 0.335449 4.63583 0.335449 6.23914C0.335449 7.84244 0.342269 8.04021 0.37023 8.6724C0.379256 9.16179 0.471501 9.64608 0.643016 10.1045C0.794998 10.4968 1.02712 10.853 1.32456 11.1504C1.622 11.4478 1.97821 11.68 2.37044 11.832C2.82895 12.0032 3.3132 12.0955 3.80257 12.1047C4.43203 12.1327 4.63321 12.1395 6.23583 12.1395C7.83845 12.1395 8.03963 12.1327 8.66909 12.1047C9.15848 12.0957 9.64278 12.0035 10.1012 11.832C10.4936 11.6802 10.8499 11.4481 11.1474 11.1507C11.4448 10.8532 11.6769 10.4969 11.8286 10.1045C11.9999 9.646 12.0921 9.16176 12.1014 8.6724C12.1294 8.04294 12.1362 7.84176 12.1362 6.23914C12.1362 4.63652 12.1362 4.43534 12.1062 3.80588L12.111 3.8052ZM11.0471 8.62671C11.0428 9.0011 10.9736 9.3719 10.8425 9.72263C10.7441 9.97733 10.5935 10.2086 10.4005 10.4017C10.2074 10.5948 9.97607 10.7454 9.72136 10.8438C9.37058 10.9746 8.99981 11.0439 8.62544 11.0484C8.00281 11.0763 7.81595 11.0832 6.23856 11.0832C4.66117 11.0832 4.47363 11.0763 3.85167 11.0484C3.47728 11.0441 3.10646 10.9749 2.75575 10.8438C2.49957 10.7497 2.26788 10.5991 2.07788 10.4032C1.88248 10.2128 1.73198 9.98124 1.63732 9.72535C1.50648 9.37457 1.43726 9.0038 1.43273 8.62943C1.40477 8.0068 1.39795 7.81994 1.39795 6.24255C1.39795 4.66516 1.40477 4.47762 1.43273 3.85566C1.43699 3.48127 1.50621 3.11045 1.63732 2.75974C1.73151 2.50296 1.88313 2.2711 2.0806 2.08187C2.27096 1.8864 2.50255 1.73589 2.75848 1.64132C3.10928 1.51051 3.48004 1.44129 3.8544 1.43673C4.47704 1.40876 4.66389 1.40194 6.24128 1.40194C7.81867 1.40194 8.00622 1.40876 8.62817 1.43673C9.00256 1.44102 9.37337 1.51024 9.72409 1.64132C9.98029 1.73535 10.212 1.88593 10.402 2.08187C10.5974 2.27227 10.7479 2.50384 10.8425 2.75974C10.9733 3.11054 11.0426 3.4813 11.0471 3.85566C11.0751 4.4783 11.0819 4.66516 11.0819 6.24255C11.0819 7.81994 11.0751 8.00271 11.0471 8.62534V8.62671Z" fill="black"/>
<path d="M6.24286 3.20605C5.64291 3.20605 5.05644 3.38396 4.5576 3.71728C4.05877 4.05059 3.66997 4.52434 3.44038 5.07862C3.21078 5.6329 3.15072 6.24281 3.26776 6.83123C3.3848 7.41965 3.67371 7.96015 4.09793 8.38438C4.52216 8.80861 5.06266 9.0975 5.65108 9.21455C6.2395 9.33159 6.84941 9.27152 7.40369 9.04193C7.95797 8.81234 8.43172 8.42354 8.76503 7.9247C9.09835 7.42587 9.27626 6.83939 9.27626 6.23944C9.27608 5.43499 8.95643 4.66355 8.3876 4.09472C7.81877 3.52588 7.04731 3.20624 6.24286 3.20605ZM6.24286 8.20691C5.85373 8.20691 5.47334 8.09153 5.14979 7.87534C4.82624 7.65915 4.57406 7.35188 4.42515 6.99237C4.27624 6.63286 4.23728 6.23726 4.31319 5.85561C4.38911 5.47395 4.5765 5.12339 4.85165 4.84823C5.12681 4.57307 5.47737 4.38569 5.85902 4.30977C6.24068 4.23386 6.63628 4.27282 6.99579 4.42173C7.35529 4.57065 7.66257 4.82282 7.87875 5.14637C8.09494 5.46992 8.21034 5.85031 8.21034 6.23944C8.21016 6.76119 8.00281 7.26153 7.63388 7.63046C7.26495 7.9994 6.76461 8.20673 6.24286 8.20691Z" fill="black"/>
<path d="M10.1023 3.08581C10.1023 3.22582 10.0608 3.36268 9.98298 3.47909C9.9052 3.5955 9.79465 3.68623 9.66531 3.73981C9.53596 3.79339 9.39362 3.80741 9.25631 3.7801C9.11899 3.75278 8.99287 3.68536 8.89387 3.58636C8.79487 3.48736 8.72744 3.36123 8.70013 3.22392C8.67281 3.0866 8.68682 2.94427 8.7404 2.81492C8.79398 2.68557 8.88472 2.57501 9.00113 2.49723C9.11754 2.41945 9.25441 2.37793 9.39442 2.37793C9.58216 2.37793 9.76221 2.45251 9.89497 2.58526C10.0277 2.71802 10.1023 2.89807 10.1023 3.08581Z" fill="black"/>
</svg>
