<svg width="12" height="12" viewBox="0 0 12 12" fill="none" xmlns="http://www.w3.org/2000/svg">
<path d="M11.9049 11.406V7.35112C11.9049 5.35826 11.4759 3.83594 9.1509 3.83594C8.02991 3.83594 7.28259 4.44487 6.97813 5.02612H6.95045V4.01585H4.75V11.406H7.04732V7.73862C7.04732 6.76987 7.22723 5.84264 8.41741 5.84264C9.59375 5.84264 9.60759 6.93594 9.60759 7.79398V11.3922H11.9049V11.406Z" fill="black"/>
<path d="M1.01318 4.01465H3.31051V11.4048H1.01318V4.01465Z" fill="black"/>
<path d="M2.16158 0.333984C1.4281 0.333984 0.833008 0.929074 0.833008 1.66256C0.833008 2.39604 1.4281 3.00497 2.16158 3.00497C2.89506 3.00497 3.49015 2.39604 3.49015 1.66256C3.49015 0.929074 2.89506 0.333984 2.16158 0.333984Z" fill="black"/>
</svg>
