<svg width="9" height="12" viewBox="0 0 9 12" fill="none" xmlns="http://www.w3.org/2000/svg">
<path d="M4.5 0C3.30701 0.00158253 2.16334 0.476196 1.31977 1.31977C0.476196 2.16334 0.00158253 3.30701 0 4.5C0 7.73062 4.1925 11.7769 4.37062 11.9475C4.40527 11.9812 4.45168 12 4.5 12C4.54831 12 4.59472 11.9812 4.62937 11.9475C4.80749 11.7769 8.99999 7.73062 8.99999 4.5C8.99841 3.30701 8.52379 2.16334 7.68022 1.31977C6.83665 0.476196 5.69298 0.00158253 4.5 0V0ZM4.5 6.56249C4.09207 6.56249 3.69331 6.44153 3.35413 6.2149C3.01496 5.98827 2.7506 5.66615 2.5945 5.28928C2.43839 4.91241 2.39755 4.49771 2.47713 4.09762C2.55671 3.69754 2.75314 3.33003 3.04159 3.04159C3.33003 2.75314 3.69754 2.55671 4.09762 2.47713C4.49771 2.39755 4.91241 2.43839 5.28928 2.5945C5.66615 2.7506 5.98827 3.01496 6.2149 3.35413C6.44153 3.69331 6.56249 4.09207 6.56249 4.5C6.56217 5.0469 6.34476 5.57132 5.95804 5.95804C5.57132 6.34476 5.0469 6.56217 4.5 6.56249Z" fill="#F9F9FB"/>
</svg>
