<svg width="46" height="46" viewBox="0 0 46 46" fill="none" xmlns="http://www.w3.org/2000/svg">
<path d="M19.25 46C21.8893 46 24.0742 43.9466 24.4401 41.2857H32.4395L31.4697 42.3016L32.5303 43.4127L34.7803 41.0555C34.9268 40.9021 35 40.701 35 40.5C35 40.299 34.9268 40.0979 34.7803 39.9445L32.5303 37.5873L31.4697 38.6984L32.4395 39.7143H24.4401C24.0742 37.0534 21.8893 35 19.25 35C16.3555 35 14 37.4673 14 40.5C14 43.5327 16.3555 46 19.25 46ZM19.25 36.5714C21.3176 36.5714 23 38.3339 23 40.5C23 42.6661 21.3176 44.4286 19.25 44.4286C17.1824 44.4286 15.5 42.6661 15.5 40.5C15.5 38.3339 17.1824 36.5714 19.25 36.5714Z" fill="white"/>
<path d="M40.5 46C43.5324 46 46 43.5327 46 40.5C46 37.4673 43.5324 35 40.5 35C37.4676 35 35 37.4673 35 40.5C35 43.5327 37.4676 46 40.5 46ZM40.5 36.5714C42.6661 36.5714 44.4286 38.3339 44.4286 40.5C44.4286 42.6661 42.6661 44.4286 40.5 44.4286C38.3339 44.4286 36.5714 42.6661 36.5714 40.5C36.5714 38.3339 38.3339 36.5714 40.5 36.5714Z" fill="white"/>
<path d="M15.75 18C13.1107 18 10.9258 19.9383 10.5599 22.4501H9.375C4.20556 22.4501 0 26.609 0 31.7212C0 36.8333 4.20556 40.9922 9.375 40.9922H10.9395L9.96973 41.9512L11.0303 43L13.2803 40.7749C13.4268 40.6301 13.5 40.4403 13.5 40.2506C13.5 40.0608 13.4268 39.871 13.2803 39.7262L11.0303 37.5011L9.96973 38.5499L10.9395 39.5089H9.375C5.03247 39.5089 1.5 36.0152 1.5 31.7212C1.5 27.4272 5.03247 23.9335 9.375 23.9335H10.5599C10.9258 26.4453 13.1107 28.3836 15.75 28.3836C18.6445 28.3836 21 26.0546 21 23.1918C21 20.329 18.6445 18 15.75 18ZM15.75 26.9002C13.6824 26.9002 12 25.2365 12 23.1918C12 21.1471 13.6824 19.4834 15.75 19.4834C17.8176 19.4834 19.5 21.1471 19.5 23.1918C19.5 25.2365 17.8176 26.9002 15.75 26.9002Z" fill="white"/>
<path d="M18.5303 2.58733L17.4697 3.69838L18.4395 4.71429H10.4401C10.0742 2.05339 7.88928 0 5.25 0C2.35546 0 0 2.46725 0 5.5C0 8.53275 2.35546 11 5.25 11C7.88928 11 10.0742 8.94661 10.4401 6.28571H18.4395L17.4697 7.30162L18.5303 8.41267L20.7803 6.05552C20.9268 5.90207 21 5.70103 21 5.5C21 5.29897 20.9268 5.09793 20.7803 4.94448L18.5303 2.58733ZM5.25 9.42857C3.18237 9.42857 1.5 7.66609 1.5 5.5C1.5 3.33391 3.18237 1.57143 5.25 1.57143C7.31763 1.57143 9 3.33391 9 5.5C9 7.66609 7.31763 9.42857 5.25 9.42857Z" fill="white"/>
<path d="M46 14.27C46 8.95341 41.6192 4.62811 36.2344 4.62811H31.8751C31.494 2.01585 29.218 0 26.4688 0C23.4536 0 21 2.42215 21 5.39947C21 8.37678 23.4536 10.7989 26.4688 10.7989C29.218 10.7989 31.494 8.78308 31.8751 6.17082H36.2344C40.7578 6.17082 44.4375 9.80424 44.4375 14.27C44.4375 18.7358 40.7578 22.3692 36.2344 22.3692H23.6672L24.6774 21.3719L23.5726 20.2811L21.2289 22.5952C21.0763 22.7459 21 22.9432 21 23.1406C21 23.3379 21.0763 23.5353 21.2289 23.6859L23.5726 26L24.6774 24.9093L23.6672 23.9119H36.2344C41.6192 23.9119 46 19.5866 46 14.27ZM26.4688 9.25623C24.315 9.25623 22.5625 7.52596 22.5625 5.39947C22.5625 3.27297 24.315 1.5427 26.4688 1.5427C28.6225 1.5427 30.375 3.27297 30.375 5.39947C30.375 7.52596 28.6225 9.25623 26.4688 9.25623Z" fill="white"/>
</svg>
